%TF.GenerationSoftware,KiCad,Pcbnew,(5.0.0)*%
%TF.CreationDate,2019-07-13T01:50:26+02:00*%
%TF.ProjectId,Gnu vario V1.10,476E7520766172696F2056312E31302E,V 1.10*%
%TF.SameCoordinates,Original*%
%TF.FileFunction,Legend,Bot*%
%TF.FilePolarity,Positive*%
%FSLAX46Y46*%
G04 Gerber Fmt 4.6, Leading zero omitted, Abs format (unit mm)*
G04 Created by KiCad (PCBNEW (5.0.0)) date 07/13/19 01:50:26*
%MOMM*%
%LPD*%
G01*
G04 APERTURE LIST*
%ADD10C,0.150000*%
%ADD11C,0.100000*%
G04 APERTURE END LIST*
D10*
X162700000Y-95300000D02*
X173500000Y-95300000D01*
X162700000Y-108600000D02*
G75*
G02X161700000Y-109600000I-1000000J0D01*
G01*
X176200000Y-109600000D02*
G75*
G02X175300000Y-108700000I0J900000D01*
G01*
X175300000Y-97100000D02*
X175300000Y-108700000D01*
X173500000Y-95300000D02*
X175300000Y-97100000D01*
X162700000Y-95300000D02*
X162700000Y-108600000D01*
X157800000Y-109600000D02*
G75*
G02X156900000Y-108700000I0J900000D01*
G01*
X85500000Y-69900000D02*
X85500000Y-85100000D01*
X102000000Y-100100000D02*
X85500000Y-100100000D01*
X102000000Y-85100000D02*
X102000000Y-100100000D01*
X101000000Y-85100000D02*
X102000000Y-85100000D01*
X101000000Y-85100000D02*
X85500000Y-85100000D01*
X148800000Y-77900000D02*
X156400000Y-70100000D01*
X129800000Y-77900000D02*
X148800000Y-77900000D01*
X129800000Y-65900000D02*
X129800000Y-77900000D01*
X157800000Y-109600000D02*
X161700000Y-109600000D01*
X175700000Y-65900000D02*
X162400000Y-65900000D01*
X162400000Y-65900000D02*
X157400000Y-65900000D01*
X156402857Y-66600886D02*
G75*
G02X157400000Y-65900000I952331J-295115D01*
G01*
X156400000Y-66600000D02*
X156400000Y-70100000D01*
X98800000Y-109600000D02*
G75*
G02X97800000Y-108600000I0J1000000D01*
G01*
X92198215Y-108600000D02*
G75*
G02X91198215Y-109600000I-1000000J0D01*
G01*
X92198215Y-106600000D02*
G75*
G02X97800000Y-106500000I2801785J0D01*
G01*
X97800000Y-108600000D02*
X97800000Y-106500000D01*
X92200000Y-108600000D02*
X92198215Y-106600000D01*
X139800000Y-108600000D02*
G75*
G02X138800000Y-109600000I-1000000J0D01*
G01*
X101000000Y-66900000D02*
G75*
G02X102000000Y-65900000I1000000J0D01*
G01*
X91000000Y-65900000D02*
G75*
G02X92000000Y-66900000I0J-1000000D01*
G01*
X85500000Y-69900000D02*
G75*
G02X89500000Y-65900000I4000000J0D01*
G01*
X89500000Y-109600000D02*
G75*
G02X85500000Y-105600000I0J4000000D01*
G01*
X185500000Y-105600000D02*
G75*
G02X181500000Y-109600000I-4000000J0D01*
G01*
X181500000Y-65900000D02*
G75*
G02X185500000Y-69900000I0J-4000000D01*
G01*
X156900000Y-103600000D02*
X139800000Y-103600000D01*
X139800000Y-103600000D02*
X139800000Y-108600000D01*
X156900000Y-108700000D02*
X156900000Y-103600000D01*
X138800000Y-109600000D02*
X98800000Y-109600000D01*
X181500000Y-109600000D02*
X176200000Y-109600000D01*
X185500000Y-69900000D02*
X185500000Y-105600000D01*
X175700000Y-65900000D02*
X181500000Y-65900000D01*
X102000000Y-65900000D02*
X129800000Y-65900000D01*
X101000000Y-81900000D02*
X101000000Y-66900000D01*
X92000000Y-81900000D02*
X101000000Y-81900000D01*
X92000000Y-66900000D02*
X92000000Y-81900000D01*
X89500000Y-65900000D02*
X91000000Y-65900000D01*
X85500000Y-105600000D02*
X85500000Y-100100000D01*
X91200000Y-109600000D02*
X89500000Y-109600000D01*
X158600000Y-93500000D02*
X158600000Y-66500000D01*
X179000000Y-93500000D02*
X158600000Y-93500000D01*
X158600000Y-66500000D02*
X179000000Y-66500000D01*
X179000000Y-66500000D02*
X179000000Y-93500000D01*
D11*
X158600000Y-94620000D02*
X175600000Y-94620000D01*
X175600000Y-94620000D02*
X175600000Y-108520000D01*
X162300000Y-108520000D02*
X158600000Y-108520000D01*
X158600000Y-108520000D02*
X158600000Y-94620000D01*
X90740000Y-84040000D02*
X86230000Y-84040000D01*
X86230000Y-84040000D02*
X86230000Y-76420000D01*
X86230000Y-76420000D02*
X90740000Y-76420000D01*
X90740000Y-76420000D02*
X90740000Y-84040000D01*
X176201170Y-98398786D02*
G75*
G02X184099999Y-98400001I3948830J-3801214D01*
G01*
X184100000Y-102200000D02*
X176200000Y-102200000D01*
X184100000Y-98400000D02*
X184100000Y-102200000D01*
X176200000Y-98400000D02*
X176200000Y-102200000D01*
D10*
X166327142Y-76195714D02*
X166374761Y-76148095D01*
X166422380Y-76005238D01*
X166422380Y-75910000D01*
X166374761Y-75767142D01*
X166279523Y-75671904D01*
X166184285Y-75624285D01*
X165993809Y-75576666D01*
X165850952Y-75576666D01*
X165660476Y-75624285D01*
X165565238Y-75671904D01*
X165470000Y-75767142D01*
X165422380Y-75910000D01*
X165422380Y-76005238D01*
X165470000Y-76148095D01*
X165517619Y-76195714D01*
X165422380Y-76910000D02*
X166136666Y-76910000D01*
X166279523Y-76862380D01*
X166374761Y-76767142D01*
X166422380Y-76624285D01*
X166422380Y-76529047D01*
X166422380Y-77386190D02*
X165422380Y-77386190D01*
X166136666Y-77719523D01*
X165422380Y-78052857D01*
X166422380Y-78052857D01*
X166327142Y-79100476D02*
X166374761Y-79052857D01*
X166422380Y-78910000D01*
X166422380Y-78814761D01*
X166374761Y-78671904D01*
X166279523Y-78576666D01*
X166184285Y-78529047D01*
X165993809Y-78481428D01*
X165850952Y-78481428D01*
X165660476Y-78529047D01*
X165565238Y-78576666D01*
X165470000Y-78671904D01*
X165422380Y-78814761D01*
X165422380Y-78910000D01*
X165470000Y-79052857D01*
X165517619Y-79100476D01*
X165422380Y-79529047D02*
X166231904Y-79529047D01*
X166327142Y-79576666D01*
X166374761Y-79624285D01*
X166422380Y-79719523D01*
X166422380Y-79910000D01*
X166374761Y-80005238D01*
X166327142Y-80052857D01*
X166231904Y-80100476D01*
X165422380Y-80100476D01*
X166041428Y-80576666D02*
X166041428Y-81338571D01*
X166422380Y-82338571D02*
X166422380Y-81767142D01*
X166422380Y-82052857D02*
X165422380Y-82052857D01*
X165565238Y-81957619D01*
X165660476Y-81862380D01*
X165708095Y-81767142D01*
X166422380Y-83290952D02*
X166422380Y-82719523D01*
X166422380Y-83005238D02*
X165422380Y-83005238D01*
X165565238Y-82910000D01*
X165660476Y-82814761D01*
X165708095Y-82719523D01*
X165422380Y-83624285D02*
X165422380Y-84290952D01*
X166422380Y-83862380D01*
X158018571Y-90892380D02*
X157399523Y-90892380D01*
X157732857Y-91273333D01*
X157590000Y-91273333D01*
X157494761Y-91320952D01*
X157447142Y-91368571D01*
X157399523Y-91463809D01*
X157399523Y-91701904D01*
X157447142Y-91797142D01*
X157494761Y-91844761D01*
X157590000Y-91892380D01*
X157875714Y-91892380D01*
X157970952Y-91844761D01*
X158018571Y-91797142D01*
X156970952Y-91797142D02*
X156923333Y-91844761D01*
X156970952Y-91892380D01*
X157018571Y-91844761D01*
X156970952Y-91797142D01*
X156970952Y-91892380D01*
X156590000Y-90892380D02*
X155970952Y-90892380D01*
X156304285Y-91273333D01*
X156161428Y-91273333D01*
X156066190Y-91320952D01*
X156018571Y-91368571D01*
X155970952Y-91463809D01*
X155970952Y-91701904D01*
X156018571Y-91797142D01*
X156066190Y-91844761D01*
X156161428Y-91892380D01*
X156447142Y-91892380D01*
X156542380Y-91844761D01*
X156590000Y-91797142D01*
X155637619Y-91225714D02*
X155399523Y-91892380D01*
X155161428Y-91225714D01*
X157472857Y-88430000D02*
X157568095Y-88382380D01*
X157710952Y-88382380D01*
X157853809Y-88430000D01*
X157949047Y-88525238D01*
X157996666Y-88620476D01*
X158044285Y-88810952D01*
X158044285Y-88953809D01*
X157996666Y-89144285D01*
X157949047Y-89239523D01*
X157853809Y-89334761D01*
X157710952Y-89382380D01*
X157615714Y-89382380D01*
X157472857Y-89334761D01*
X157425238Y-89287142D01*
X157425238Y-88953809D01*
X157615714Y-88953809D01*
X156996666Y-88715714D02*
X156996666Y-89382380D01*
X156996666Y-88810952D02*
X156949047Y-88763333D01*
X156853809Y-88715714D01*
X156710952Y-88715714D01*
X156615714Y-88763333D01*
X156568095Y-88858571D01*
X156568095Y-89382380D01*
X155663333Y-89382380D02*
X155663333Y-88382380D01*
X155663333Y-89334761D02*
X155758571Y-89382380D01*
X155949047Y-89382380D01*
X156044285Y-89334761D01*
X156091904Y-89287142D01*
X156139523Y-89191904D01*
X156139523Y-88906190D01*
X156091904Y-88810952D01*
X156044285Y-88763333D01*
X155949047Y-88715714D01*
X155758571Y-88715714D01*
X155663333Y-88763333D01*
X156580000Y-100805714D02*
X156532380Y-100710476D01*
X156532380Y-100567619D01*
X156580000Y-100424761D01*
X156675238Y-100329523D01*
X156770476Y-100281904D01*
X156960952Y-100234285D01*
X157103809Y-100234285D01*
X157294285Y-100281904D01*
X157389523Y-100329523D01*
X157484761Y-100424761D01*
X157532380Y-100567619D01*
X157532380Y-100662857D01*
X157484761Y-100805714D01*
X157437142Y-100853333D01*
X157103809Y-100853333D01*
X157103809Y-100662857D01*
X157532380Y-101281904D02*
X156532380Y-101281904D01*
X156532380Y-101662857D01*
X156580000Y-101758095D01*
X156627619Y-101805714D01*
X156722857Y-101853333D01*
X156865714Y-101853333D01*
X156960952Y-101805714D01*
X157008571Y-101758095D01*
X157056190Y-101662857D01*
X157056190Y-101281904D01*
X157484761Y-102234285D02*
X157532380Y-102377142D01*
X157532380Y-102615238D01*
X157484761Y-102710476D01*
X157437142Y-102758095D01*
X157341904Y-102805714D01*
X157246666Y-102805714D01*
X157151428Y-102758095D01*
X157103809Y-102710476D01*
X157056190Y-102615238D01*
X157008571Y-102424761D01*
X156960952Y-102329523D01*
X156913333Y-102281904D01*
X156818095Y-102234285D01*
X156722857Y-102234285D01*
X156627619Y-102281904D01*
X156580000Y-102329523D01*
X156532380Y-102424761D01*
X156532380Y-102662857D01*
X156580000Y-102805714D01*
X158158571Y-95962380D02*
X157539523Y-95962380D01*
X157872857Y-96343333D01*
X157730000Y-96343333D01*
X157634761Y-96390952D01*
X157587142Y-96438571D01*
X157539523Y-96533809D01*
X157539523Y-96771904D01*
X157587142Y-96867142D01*
X157634761Y-96914761D01*
X157730000Y-96962380D01*
X158015714Y-96962380D01*
X158110952Y-96914761D01*
X158158571Y-96867142D01*
X157110952Y-96867142D02*
X157063333Y-96914761D01*
X157110952Y-96962380D01*
X157158571Y-96914761D01*
X157110952Y-96867142D01*
X157110952Y-96962380D01*
X156730000Y-95962380D02*
X156110952Y-95962380D01*
X156444285Y-96343333D01*
X156301428Y-96343333D01*
X156206190Y-96390952D01*
X156158571Y-96438571D01*
X156110952Y-96533809D01*
X156110952Y-96771904D01*
X156158571Y-96867142D01*
X156206190Y-96914761D01*
X156301428Y-96962380D01*
X156587142Y-96962380D01*
X156682380Y-96914761D01*
X156730000Y-96867142D01*
X155777619Y-96295714D02*
X155539523Y-96962380D01*
X155301428Y-96295714D01*
X157622857Y-98430000D02*
X157718095Y-98382380D01*
X157860952Y-98382380D01*
X158003809Y-98430000D01*
X158099047Y-98525238D01*
X158146666Y-98620476D01*
X158194285Y-98810952D01*
X158194285Y-98953809D01*
X158146666Y-99144285D01*
X158099047Y-99239523D01*
X158003809Y-99334761D01*
X157860952Y-99382380D01*
X157765714Y-99382380D01*
X157622857Y-99334761D01*
X157575238Y-99287142D01*
X157575238Y-98953809D01*
X157765714Y-98953809D01*
X157146666Y-98715714D02*
X157146666Y-99382380D01*
X157146666Y-98810952D02*
X157099047Y-98763333D01*
X157003809Y-98715714D01*
X156860952Y-98715714D01*
X156765714Y-98763333D01*
X156718095Y-98858571D01*
X156718095Y-99382380D01*
X155813333Y-99382380D02*
X155813333Y-98382380D01*
X155813333Y-99334761D02*
X155908571Y-99382380D01*
X156099047Y-99382380D01*
X156194285Y-99334761D01*
X156241904Y-99287142D01*
X156289523Y-99191904D01*
X156289523Y-98906190D01*
X156241904Y-98810952D01*
X156194285Y-98763333D01*
X156099047Y-98715714D01*
X155908571Y-98715714D01*
X155813333Y-98763333D01*
X88754761Y-73424285D02*
X88802380Y-73567142D01*
X88802380Y-73805238D01*
X88754761Y-73900476D01*
X88707142Y-73948095D01*
X88611904Y-73995714D01*
X88516666Y-73995714D01*
X88421428Y-73948095D01*
X88373809Y-73900476D01*
X88326190Y-73805238D01*
X88278571Y-73614761D01*
X88230952Y-73519523D01*
X88183333Y-73471904D01*
X88088095Y-73424285D01*
X87992857Y-73424285D01*
X87897619Y-73471904D01*
X87850000Y-73519523D01*
X87802380Y-73614761D01*
X87802380Y-73852857D01*
X87850000Y-73995714D01*
X88802380Y-74424285D02*
X87802380Y-74424285D01*
X87802380Y-74805238D01*
X87850000Y-74900476D01*
X87897619Y-74948095D01*
X87992857Y-74995714D01*
X88135714Y-74995714D01*
X88230952Y-74948095D01*
X88278571Y-74900476D01*
X88326190Y-74805238D01*
X88326190Y-74424285D01*
X88802380Y-75424285D02*
X87802380Y-75424285D01*
X88802380Y-75995714D02*
X88230952Y-75567142D01*
X87802380Y-75995714D02*
X88373809Y-75424285D01*
X90021428Y-81159047D02*
X90021428Y-81920952D01*
X90402380Y-81540000D02*
X89640476Y-81540000D01*
X89921428Y-78409047D02*
X89921428Y-79170952D01*
X103286926Y-87697389D02*
X103286926Y-88268817D01*
X104286926Y-87983103D02*
X103286926Y-87983103D01*
X103286926Y-88459293D02*
X103286926Y-89030722D01*
X104286926Y-88745008D02*
X103286926Y-88745008D01*
X103334546Y-89887865D02*
X103286926Y-89792627D01*
X103286926Y-89649770D01*
X103334546Y-89506912D01*
X103429784Y-89411674D01*
X103525022Y-89364055D01*
X103715498Y-89316436D01*
X103858355Y-89316436D01*
X104048831Y-89364055D01*
X104144069Y-89411674D01*
X104239307Y-89506912D01*
X104286926Y-89649770D01*
X104286926Y-89745008D01*
X104239307Y-89887865D01*
X104191688Y-89935484D01*
X103858355Y-89935484D01*
X103858355Y-89745008D01*
X103286926Y-90554532D02*
X103286926Y-90745008D01*
X103334546Y-90840246D01*
X103429784Y-90935484D01*
X103620260Y-90983103D01*
X103953593Y-90983103D01*
X104144069Y-90935484D01*
X104239307Y-90840246D01*
X104286926Y-90745008D01*
X104286926Y-90554532D01*
X104239307Y-90459293D01*
X104144069Y-90364055D01*
X103953593Y-90316436D01*
X103620260Y-90316436D01*
X103429784Y-90364055D01*
X103334546Y-90459293D01*
X103286926Y-90554532D01*
X103286926Y-92030722D02*
X103286926Y-92602151D01*
X104286926Y-92316436D02*
X103286926Y-92316436D01*
X103286926Y-93411674D02*
X103286926Y-92935484D01*
X103763117Y-92887865D01*
X103715498Y-92935484D01*
X103667879Y-93030722D01*
X103667879Y-93268817D01*
X103715498Y-93364055D01*
X103763117Y-93411674D01*
X103858355Y-93459293D01*
X104096450Y-93459293D01*
X104191688Y-93411674D01*
X104239307Y-93364055D01*
X104286926Y-93268817D01*
X104286926Y-93030722D01*
X104239307Y-92935484D01*
X104191688Y-92887865D01*
X103286926Y-94506912D02*
X104286926Y-94840246D01*
X103286926Y-95173579D01*
X104286926Y-96030722D02*
X104286926Y-95459293D01*
X104286926Y-95745008D02*
X103286926Y-95745008D01*
X103429784Y-95649770D01*
X103525022Y-95554532D01*
X103572641Y-95459293D01*
X104191688Y-96459293D02*
X104239307Y-96506912D01*
X104286926Y-96459293D01*
X104239307Y-96411674D01*
X104191688Y-96459293D01*
X104286926Y-96459293D01*
X104286926Y-96840246D02*
X103620260Y-97364055D01*
X103620260Y-96840246D02*
X104286926Y-97364055D01*
X182052857Y-95338571D02*
X181910000Y-95386190D01*
X181862380Y-95433809D01*
X181814761Y-95529047D01*
X181814761Y-95671904D01*
X181862380Y-95767142D01*
X181910000Y-95814761D01*
X182005238Y-95862380D01*
X182386190Y-95862380D01*
X182386190Y-94862380D01*
X182052857Y-94862380D01*
X181957619Y-94910000D01*
X181910000Y-94957619D01*
X181862380Y-95052857D01*
X181862380Y-95148095D01*
X181910000Y-95243333D01*
X181957619Y-95290952D01*
X182052857Y-95338571D01*
X182386190Y-95338571D01*
X180814761Y-95767142D02*
X180862380Y-95814761D01*
X181005238Y-95862380D01*
X181100476Y-95862380D01*
X181243333Y-95814761D01*
X181338571Y-95719523D01*
X181386190Y-95624285D01*
X181433809Y-95433809D01*
X181433809Y-95290952D01*
X181386190Y-95100476D01*
X181338571Y-95005238D01*
X181243333Y-94910000D01*
X181100476Y-94862380D01*
X181005238Y-94862380D01*
X180862380Y-94910000D01*
X180814761Y-94957619D01*
X180481428Y-95862380D02*
X179957619Y-95195714D01*
X180481428Y-95195714D02*
X179957619Y-95862380D01*
X179671904Y-95862380D02*
X179148095Y-95195714D01*
X179671904Y-95195714D02*
X179148095Y-95862380D01*
X178862380Y-95862380D02*
X178338571Y-95195714D01*
X178862380Y-95195714D02*
X178338571Y-95862380D01*
M02*
