%TF.GenerationSoftware,KiCad,Pcbnew,(5.0.0)*%
%TF.CreationDate,2019-07-13T03:49:13+02:00*%
%TF.ProjectId,Gnu_Vario_E_V1.10,476E755F566172696F5F455F56312E31,V 1.10*%
%TF.SameCoordinates,Original*%
%TF.FileFunction,Legend,Top*%
%TF.FilePolarity,Positive*%
%FSLAX46Y46*%
G04 Gerber Fmt 4.6, Leading zero omitted, Abs format (unit mm)*
G04 Created by KiCad (PCBNEW (5.0.0)) date 07/13/19 03:49:14*
%MOMM*%
%LPD*%
G01*
G04 APERTURE LIST*
%ADD10C,0.150000*%
%ADD11C,0.450000*%
%ADD12C,0.010000*%
G04 APERTURE END LIST*
D10*
X162700000Y-95300000D02*
X173500000Y-95300000D01*
X162700000Y-108600000D02*
G75*
G02X161700000Y-109600000I-1000000J0D01*
G01*
X176200000Y-109600000D02*
G75*
G02X175300000Y-108700000I0J900000D01*
G01*
X175300000Y-97100000D02*
X175300000Y-108700000D01*
X173500000Y-95300000D02*
X175300000Y-97100000D01*
X162700000Y-95300000D02*
X162700000Y-108600000D01*
X157800000Y-109600000D02*
G75*
G02X156900000Y-108700000I0J900000D01*
G01*
X85500000Y-69900000D02*
X85500000Y-85100000D01*
X102000000Y-100100000D02*
X85500000Y-100100000D01*
X102000000Y-85100000D02*
X102000000Y-100100000D01*
X101000000Y-85100000D02*
X102000000Y-85100000D01*
X101000000Y-85100000D02*
X85500000Y-85100000D01*
X148800000Y-77900000D02*
X156400000Y-70100000D01*
X129800000Y-77900000D02*
X148800000Y-77900000D01*
X129800000Y-65900000D02*
X129800000Y-77900000D01*
X157800000Y-109600000D02*
X161700000Y-109600000D01*
X175700000Y-65900000D02*
X162400000Y-65900000D01*
X162400000Y-65900000D02*
X157400000Y-65900000D01*
X156402857Y-66600886D02*
G75*
G02X157400000Y-65900000I952331J-295115D01*
G01*
X156400000Y-66600000D02*
X156400000Y-70100000D01*
X98800000Y-109600000D02*
G75*
G02X97800000Y-108600000I0J1000000D01*
G01*
X92198215Y-108600000D02*
G75*
G02X91198215Y-109600000I-1000000J0D01*
G01*
X92198215Y-106600000D02*
G75*
G02X97800000Y-106500000I2801785J0D01*
G01*
X97800000Y-108600000D02*
X97800000Y-106500000D01*
X92200000Y-108600000D02*
X92198215Y-106600000D01*
X139800000Y-108600000D02*
G75*
G02X138800000Y-109600000I-1000000J0D01*
G01*
X101000000Y-66900000D02*
G75*
G02X102000000Y-65900000I1000000J0D01*
G01*
X91000000Y-65900000D02*
G75*
G02X92000000Y-66900000I0J-1000000D01*
G01*
X85500000Y-69900000D02*
G75*
G02X89500000Y-65900000I4000000J0D01*
G01*
X89500000Y-109600000D02*
G75*
G02X85500000Y-105600000I0J4000000D01*
G01*
X185500000Y-105600000D02*
G75*
G02X181500000Y-109600000I-4000000J0D01*
G01*
X181500000Y-65900000D02*
G75*
G02X185500000Y-69900000I0J-4000000D01*
G01*
X156900000Y-103600000D02*
X139800000Y-103600000D01*
X139800000Y-103600000D02*
X139800000Y-108600000D01*
X156900000Y-108700000D02*
X156900000Y-103600000D01*
X138800000Y-109600000D02*
X98800000Y-109600000D01*
X181500000Y-109600000D02*
X176200000Y-109600000D01*
X185500000Y-69900000D02*
X185500000Y-105600000D01*
X175700000Y-65900000D02*
X181500000Y-65900000D01*
X102000000Y-65900000D02*
X129800000Y-65900000D01*
X101000000Y-81900000D02*
X101000000Y-66900000D01*
X92000000Y-81900000D02*
X101000000Y-81900000D01*
X92000000Y-66900000D02*
X92000000Y-81900000D01*
X89500000Y-65900000D02*
X91000000Y-65900000D01*
X85500000Y-105600000D02*
X85500000Y-100100000D01*
X91200000Y-109600000D02*
X89500000Y-109600000D01*
D11*
X115234285Y-80461026D02*
X117034285Y-80086026D01*
X115234285Y-79261026D01*
X116520000Y-78907455D02*
X116520000Y-78050312D01*
X117034285Y-79143169D02*
X115234285Y-78318169D01*
X117034285Y-77943169D01*
X117034285Y-76314598D02*
X116177142Y-76807455D01*
X117034285Y-77343169D02*
X115234285Y-77118169D01*
X115234285Y-76432455D01*
X115320000Y-76271741D01*
X115405714Y-76196741D01*
X115577142Y-76132455D01*
X115834285Y-76164598D01*
X116005714Y-76271741D01*
X116091428Y-76368169D01*
X116177142Y-76550312D01*
X116177142Y-77236026D01*
X117034285Y-75543169D02*
X115234285Y-75318169D01*
X115234285Y-74118169D02*
X115234285Y-73775312D01*
X115320000Y-73614598D01*
X115491428Y-73464598D01*
X115834285Y-73421741D01*
X116434285Y-73496741D01*
X116777142Y-73625312D01*
X116948571Y-73818169D01*
X117034285Y-74000312D01*
X117034285Y-74343169D01*
X116948571Y-74503883D01*
X116777142Y-74653883D01*
X116434285Y-74696741D01*
X115834285Y-74621741D01*
X115491428Y-74493169D01*
X115320000Y-74300312D01*
X115234285Y-74118169D01*
X116348571Y-72714598D02*
X116348571Y-71343169D01*
X116091428Y-70453883D02*
X116091428Y-69853883D01*
X117034285Y-69714598D02*
X117034285Y-70571741D01*
X115234285Y-70346741D01*
X115234285Y-69489598D01*
D10*
X145330000Y-88970000D02*
X152950000Y-88970000D01*
X145330000Y-94050000D02*
X145330000Y-88970000D01*
X152950000Y-94050000D02*
X145330000Y-94050000D01*
X152950000Y-88970000D02*
X152950000Y-94050000D01*
X132410000Y-86420000D02*
X132410000Y-94040000D01*
X127330000Y-86420000D02*
X132410000Y-86420000D01*
X127330000Y-94040000D02*
X127330000Y-86420000D01*
X132410000Y-94040000D02*
X127330000Y-94040000D01*
X137670000Y-86420000D02*
X137670000Y-94040000D01*
X132590000Y-86420000D02*
X137670000Y-86420000D01*
X132590000Y-94040000D02*
X132590000Y-86420000D01*
X137670000Y-94040000D02*
X132590000Y-94040000D01*
X142930000Y-86420000D02*
X142930000Y-94040000D01*
X137850000Y-86420000D02*
X142930000Y-86420000D01*
X137850000Y-94040000D02*
X137850000Y-86420000D01*
X142930000Y-94040000D02*
X137850000Y-94040000D01*
X145330000Y-95030000D02*
X152950000Y-95030000D01*
X145330000Y-100110000D02*
X145330000Y-95030000D01*
X152950000Y-100110000D02*
X145330000Y-100110000D01*
X152950000Y-95030000D02*
X152950000Y-100110000D01*
D12*
G36*
X113467092Y-72500744D02*
X113483447Y-72164129D01*
X113514138Y-71961910D01*
X113560527Y-71864224D01*
X113617221Y-71841000D01*
X113687629Y-71879071D01*
X113743094Y-72014476D01*
X113787459Y-72279010D01*
X113824570Y-72704463D01*
X113858270Y-73322630D01*
X113889805Y-74095250D01*
X113923734Y-74869663D01*
X113964735Y-75594817D01*
X114009039Y-76216330D01*
X114052878Y-76679819D01*
X114083682Y-76893493D01*
X114137654Y-77248914D01*
X114102759Y-77443702D01*
X113964154Y-77560199D01*
X113963430Y-77560587D01*
X113900409Y-77574027D01*
X113900409Y-77283217D01*
X113910949Y-77089380D01*
X113884413Y-76730500D01*
X113837779Y-76318330D01*
X113792455Y-76020996D01*
X113763859Y-75915584D01*
X113727286Y-75967999D01*
X113719106Y-76194171D01*
X113734384Y-76516051D01*
X113768189Y-76855592D01*
X113815586Y-77134745D01*
X113847479Y-77238500D01*
X113900409Y-77283217D01*
X113900409Y-77574027D01*
X113729269Y-77610525D01*
X113642712Y-77536928D01*
X113639114Y-77516626D01*
X113639114Y-74792503D01*
X113651997Y-74742543D01*
X113661632Y-74479269D01*
X113667055Y-74023022D01*
X113667891Y-73682500D01*
X113665114Y-73131328D01*
X113657681Y-72767808D01*
X113646555Y-72610411D01*
X113632695Y-72677605D01*
X113623589Y-72830807D01*
X113607006Y-73458853D01*
X113608972Y-74139297D01*
X113623949Y-74608807D01*
X113639114Y-74792503D01*
X113639114Y-77516626D01*
X113613411Y-77371588D01*
X113582300Y-76991257D01*
X113551414Y-76434915D01*
X113522784Y-75741540D01*
X113498443Y-74950113D01*
X113490380Y-74615584D01*
X113471923Y-73696609D01*
X113463705Y-73001616D01*
X113467092Y-72500744D01*
X113467092Y-72500744D01*
G37*
X113467092Y-72500744D02*
X113483447Y-72164129D01*
X113514138Y-71961910D01*
X113560527Y-71864224D01*
X113617221Y-71841000D01*
X113687629Y-71879071D01*
X113743094Y-72014476D01*
X113787459Y-72279010D01*
X113824570Y-72704463D01*
X113858270Y-73322630D01*
X113889805Y-74095250D01*
X113923734Y-74869663D01*
X113964735Y-75594817D01*
X114009039Y-76216330D01*
X114052878Y-76679819D01*
X114083682Y-76893493D01*
X114137654Y-77248914D01*
X114102759Y-77443702D01*
X113964154Y-77560199D01*
X113963430Y-77560587D01*
X113900409Y-77574027D01*
X113900409Y-77283217D01*
X113910949Y-77089380D01*
X113884413Y-76730500D01*
X113837779Y-76318330D01*
X113792455Y-76020996D01*
X113763859Y-75915584D01*
X113727286Y-75967999D01*
X113719106Y-76194171D01*
X113734384Y-76516051D01*
X113768189Y-76855592D01*
X113815586Y-77134745D01*
X113847479Y-77238500D01*
X113900409Y-77283217D01*
X113900409Y-77574027D01*
X113729269Y-77610525D01*
X113642712Y-77536928D01*
X113639114Y-77516626D01*
X113639114Y-74792503D01*
X113651997Y-74742543D01*
X113661632Y-74479269D01*
X113667055Y-74023022D01*
X113667891Y-73682500D01*
X113665114Y-73131328D01*
X113657681Y-72767808D01*
X113646555Y-72610411D01*
X113632695Y-72677605D01*
X113623589Y-72830807D01*
X113607006Y-73458853D01*
X113608972Y-74139297D01*
X113623949Y-74608807D01*
X113639114Y-74792503D01*
X113639114Y-77516626D01*
X113613411Y-77371588D01*
X113582300Y-76991257D01*
X113551414Y-76434915D01*
X113522784Y-75741540D01*
X113498443Y-74950113D01*
X113490380Y-74615584D01*
X113471923Y-73696609D01*
X113463705Y-73001616D01*
X113467092Y-72500744D01*
G36*
X102239158Y-75397000D02*
X102247416Y-74563156D01*
X102268314Y-73918831D01*
X102308395Y-73399620D01*
X102374201Y-72941115D01*
X102472274Y-72478911D01*
X102577463Y-72066574D01*
X102950153Y-70911583D01*
X103414995Y-69867289D01*
X103948046Y-68979052D01*
X104525364Y-68292233D01*
X104612488Y-68211014D01*
X105043375Y-67861511D01*
X105351879Y-67703457D01*
X105506935Y-67698288D01*
X105828364Y-67695284D01*
X105992284Y-67638609D01*
X106117873Y-67610945D01*
X106278976Y-67672273D01*
X106509057Y-67848037D01*
X106841582Y-68163681D01*
X107295396Y-68629380D01*
X107746259Y-69096263D01*
X108060255Y-69403543D01*
X108274519Y-69576661D01*
X108426181Y-69641057D01*
X108552374Y-69622172D01*
X108659894Y-69564226D01*
X109350215Y-69206122D01*
X109956454Y-69050620D01*
X110539133Y-69091498D01*
X111133113Y-69310011D01*
X111694204Y-69717154D01*
X112092786Y-70295015D01*
X112242123Y-70723847D01*
X112265131Y-70938036D01*
X112180917Y-71104393D01*
X111942485Y-71286098D01*
X111726994Y-71416404D01*
X111131112Y-71765614D01*
X111996259Y-71925288D01*
X112626768Y-72077722D01*
X113037798Y-72274608D01*
X113263160Y-72541428D01*
X113336666Y-72903663D01*
X113337000Y-72935716D01*
X113293357Y-73238855D01*
X113138253Y-73440258D01*
X112835420Y-73555219D01*
X112428609Y-73591831D01*
X112428609Y-73471297D01*
X112763008Y-73429546D01*
X112968218Y-73330981D01*
X113005154Y-73297703D01*
X113187732Y-73016147D01*
X113145337Y-72721277D01*
X112984435Y-72479579D01*
X112764080Y-72299760D01*
X112411261Y-72178381D01*
X111936685Y-72101053D01*
X111508703Y-72056578D01*
X111192712Y-72037926D01*
X111061583Y-72048044D01*
X111060249Y-72143643D01*
X111293348Y-72227877D01*
X111770375Y-72304070D01*
X111804886Y-72308213D01*
X112348049Y-72423419D01*
X112731209Y-72609175D01*
X112920297Y-72843066D01*
X112913812Y-73037757D01*
X112833885Y-73150897D01*
X112666147Y-73211695D01*
X112354586Y-73229790D01*
X111876305Y-73216289D01*
X111362908Y-73209247D01*
X111051267Y-73239647D01*
X110965580Y-73301500D01*
X111103924Y-73369025D01*
X111428173Y-73427171D01*
X111870244Y-73464039D01*
X111904063Y-73465525D01*
X112428609Y-73471297D01*
X112428609Y-73591831D01*
X112348595Y-73599033D01*
X111780038Y-73592367D01*
X111263915Y-73568652D01*
X110951625Y-73532933D01*
X110793009Y-73471270D01*
X110737908Y-73369722D01*
X110733500Y-73301500D01*
X110755996Y-73171633D01*
X110858578Y-73095435D01*
X111093881Y-73058869D01*
X111514543Y-73047899D01*
X111686000Y-73047500D01*
X112149702Y-73031781D01*
X112503216Y-72990234D01*
X112680150Y-72931276D01*
X112687750Y-72920500D01*
X112632581Y-72761758D01*
X112378693Y-72621787D01*
X111981365Y-72520578D01*
X111495874Y-72478120D01*
X111463750Y-72477873D01*
X111010973Y-72446876D01*
X110803322Y-72357377D01*
X110788949Y-72317250D01*
X110746318Y-72286340D01*
X110678085Y-72412500D01*
X110630157Y-72652111D01*
X110587418Y-73085385D01*
X110552467Y-73652003D01*
X110527905Y-74291641D01*
X110516333Y-74943978D01*
X110520351Y-75548691D01*
X110530259Y-75841500D01*
X110553667Y-76199886D01*
X110588948Y-76335635D01*
X110651586Y-76280083D01*
X110700293Y-76185617D01*
X110887919Y-75955936D01*
X111080787Y-75955590D01*
X111230574Y-76165627D01*
X111282715Y-76414041D01*
X111429647Y-76910179D01*
X111738000Y-77262023D01*
X112163285Y-77423562D01*
X112264087Y-77429000D01*
X112673024Y-77344908D01*
X112894776Y-77108670D01*
X112907237Y-76744348D01*
X112904262Y-76732150D01*
X112757818Y-76471289D01*
X112547715Y-76437249D01*
X112337776Y-76637158D01*
X112321000Y-76667000D01*
X112141442Y-76847269D01*
X111913806Y-76917448D01*
X111733314Y-76865449D01*
X111686000Y-76747628D01*
X111769317Y-76504920D01*
X111968031Y-76222656D01*
X112205279Y-75992349D01*
X112393717Y-75905000D01*
X112556768Y-75836483D01*
X112575000Y-75783564D01*
X112458531Y-75719910D01*
X112387171Y-75706996D01*
X112387171Y-75506854D01*
X112745745Y-75501276D01*
X112981461Y-75474791D01*
X113030795Y-75429462D01*
X112860946Y-75366752D01*
X112521799Y-75304043D01*
X112215878Y-75267873D01*
X111495500Y-75200822D01*
X112194000Y-74839352D01*
X112753762Y-74533412D01*
X113075628Y-74309303D01*
X113156581Y-74155469D01*
X112993601Y-74060353D01*
X112583674Y-74012400D01*
X111974838Y-74000000D01*
X111403990Y-74012529D01*
X111080190Y-74046273D01*
X111004978Y-74095470D01*
X111179890Y-74154359D01*
X111606465Y-74217176D01*
X111908706Y-74247725D01*
X112765500Y-74325203D01*
X111813000Y-74822278D01*
X111356264Y-75063754D01*
X111098963Y-75216237D01*
X111014606Y-75306814D01*
X111076704Y-75362572D01*
X111241500Y-75406651D01*
X111568328Y-75458691D01*
X111972459Y-75492375D01*
X112387171Y-75506854D01*
X112387171Y-75706996D01*
X112151220Y-75664292D01*
X111716207Y-75627599D01*
X111654250Y-75624814D01*
X111104516Y-75577782D01*
X110802947Y-75486105D01*
X110748038Y-75341937D01*
X110938283Y-75137429D01*
X111372176Y-74864732D01*
X111495500Y-74797321D01*
X112257500Y-74388142D01*
X111527250Y-74384571D01*
X111116014Y-74375193D01*
X110897832Y-74334117D01*
X110811800Y-74234185D01*
X110797000Y-74058937D01*
X110797000Y-73736874D01*
X111971750Y-73820782D01*
X112498843Y-73868092D01*
X112929973Y-73924778D01*
X113202032Y-73981693D01*
X113258613Y-74007308D01*
X113326585Y-74207076D01*
X113166124Y-74447331D01*
X112794979Y-74706028D01*
X112625750Y-74793399D01*
X112033260Y-75079500D01*
X112652277Y-75143000D01*
X113056070Y-75210465D01*
X113261091Y-75322041D01*
X113315193Y-75437752D01*
X113252338Y-75659825D01*
X113110363Y-75734047D01*
X112955315Y-75791305D01*
X112964216Y-75885597D01*
X113146692Y-76084132D01*
X113162817Y-76100273D01*
X113409495Y-76511849D01*
X113452135Y-76996808D01*
X113288700Y-77474543D01*
X113200782Y-77602373D01*
X112844989Y-77865186D01*
X112371438Y-77961258D01*
X112167496Y-77933578D01*
X112167496Y-77787332D01*
X112637700Y-77751310D01*
X112890040Y-77632791D01*
X113104567Y-77437066D01*
X113196059Y-77162834D01*
X113210000Y-76879973D01*
X113176301Y-76506591D01*
X113092088Y-76233011D01*
X113057600Y-76184400D01*
X112771882Y-76053358D01*
X112433526Y-76093859D01*
X112132341Y-76267958D01*
X111958137Y-76537714D01*
X111943861Y-76654934D01*
X111964679Y-76781714D01*
X112046192Y-76687511D01*
X112076300Y-76636808D01*
X112294139Y-76395015D01*
X112461557Y-76278745D01*
X112740327Y-76227361D01*
X112949296Y-76361539D01*
X113072619Y-76618638D01*
X113094452Y-76936017D01*
X112998951Y-77251036D01*
X112770661Y-77500797D01*
X112351029Y-77642289D01*
X111916598Y-77569549D01*
X111518310Y-77313689D01*
X111207109Y-76905823D01*
X111046061Y-76447512D01*
X110953209Y-75968500D01*
X110938604Y-76442747D01*
X111032395Y-76931672D01*
X111307022Y-77342252D01*
X111704662Y-77639226D01*
X112167496Y-77787332D01*
X112167496Y-77933578D01*
X111853636Y-77890978D01*
X111365095Y-77654735D01*
X111282994Y-77592221D01*
X111041655Y-77400519D01*
X110976491Y-77369129D01*
X111070594Y-77493328D01*
X111114500Y-77545178D01*
X111392390Y-77782689D01*
X111778822Y-78015127D01*
X111908250Y-78075945D01*
X112229297Y-78246950D01*
X112421904Y-78412113D01*
X112446759Y-78472237D01*
X112395294Y-78670966D01*
X112263920Y-79011465D01*
X112138476Y-79294967D01*
X111779544Y-79851567D01*
X111278309Y-80243751D01*
X110590180Y-80505157D01*
X110506491Y-80526093D01*
X110138230Y-80539058D01*
X110138230Y-80348382D01*
X110770397Y-80250060D01*
X111338736Y-79986922D01*
X111782096Y-79573125D01*
X111946755Y-79294800D01*
X112125504Y-78848383D01*
X112156417Y-78553617D01*
X112022728Y-78344582D01*
X111707667Y-78155357D01*
X111649830Y-78127500D01*
X111080304Y-77728122D01*
X110860500Y-77412033D01*
X110860500Y-77175000D01*
X110924000Y-77111500D01*
X110860500Y-77048000D01*
X110797000Y-77111500D01*
X110860500Y-77175000D01*
X110860500Y-77412033D01*
X110733500Y-77229401D01*
X110733500Y-76921000D01*
X110797000Y-76857500D01*
X110733500Y-76794000D01*
X110670000Y-76857500D01*
X110733500Y-76921000D01*
X110733500Y-77229401D01*
X110673770Y-77143506D01*
X110424945Y-76373417D01*
X110364481Y-76044446D01*
X110324219Y-75728097D01*
X110302147Y-75369947D01*
X110296255Y-74915574D01*
X110304529Y-74310556D01*
X110322309Y-73596564D01*
X110366592Y-72912907D01*
X110479663Y-72412266D01*
X110697453Y-72025791D01*
X111055895Y-71684634D01*
X111470501Y-71396500D01*
X111871916Y-71087233D01*
X112044179Y-70794949D01*
X112002323Y-70466703D01*
X111825968Y-70144445D01*
X111347954Y-69627974D01*
X110756796Y-69318023D01*
X110100645Y-69229117D01*
X109427654Y-69375777D01*
X109365087Y-69402271D01*
X108780345Y-69791472D01*
X108356281Y-70345625D01*
X108112442Y-71018501D01*
X108068374Y-71763870D01*
X108155507Y-72263080D01*
X108271595Y-72604876D01*
X108387710Y-72807837D01*
X108443251Y-72834580D01*
X108512456Y-72695630D01*
X108561124Y-72381019D01*
X108575523Y-72095000D01*
X108679177Y-71360145D01*
X108965456Y-70795210D01*
X109430775Y-70406854D01*
X109505180Y-70369234D01*
X109864664Y-70241167D01*
X110149109Y-70264579D01*
X110244574Y-70302583D01*
X110571216Y-70552387D01*
X110664318Y-70893493D01*
X110525031Y-71320067D01*
X110154507Y-71826271D01*
X109889820Y-72100708D01*
X109245629Y-72724882D01*
X109332829Y-73838691D01*
X109364682Y-74577248D01*
X109330467Y-75110573D01*
X109277769Y-75323813D01*
X109190633Y-75737119D01*
X109266106Y-76154653D01*
X109520889Y-76618199D01*
X109971683Y-77169542D01*
X110049130Y-77253690D01*
X110507432Y-77798553D01*
X110753482Y-78232492D01*
X110790844Y-78578521D01*
X110623083Y-78859651D01*
X110329099Y-79060988D01*
X109901634Y-79195682D01*
X109503643Y-79109413D01*
X109085663Y-78790954D01*
X109069800Y-78775201D01*
X108845785Y-78534826D01*
X108715764Y-78318768D01*
X108653310Y-78045163D01*
X108631996Y-77632150D01*
X108629073Y-77409951D01*
X108611203Y-76913398D01*
X108572669Y-76490950D01*
X108521612Y-76230199D01*
X108518687Y-76222500D01*
X108449560Y-76118621D01*
X108373430Y-76190140D01*
X108269385Y-76466591D01*
X108210113Y-76658301D01*
X108039310Y-77531006D01*
X108051644Y-78353502D01*
X108238109Y-79083883D01*
X108589699Y-79680244D01*
X108927024Y-79993940D01*
X109503389Y-80267728D01*
X110138230Y-80348382D01*
X110138230Y-80539058D01*
X110056249Y-80541945D01*
X109512012Y-80431298D01*
X108981634Y-80221838D01*
X108727793Y-80069507D01*
X108370759Y-79815276D01*
X107538908Y-80558888D01*
X106961590Y-81133735D01*
X106614845Y-81621237D01*
X106537943Y-81797805D01*
X106356206Y-82209886D01*
X106122421Y-82425861D01*
X105765665Y-82501776D01*
X105765665Y-82387441D01*
X106108229Y-82211621D01*
X106372967Y-81819272D01*
X106389440Y-81779908D01*
X106617345Y-81368110D01*
X106925643Y-80978752D01*
X106975193Y-80929490D01*
X107258906Y-80646563D01*
X107351299Y-80520192D01*
X107252000Y-80553577D01*
X106999144Y-80722353D01*
X106662211Y-80930640D01*
X106547990Y-80945488D01*
X106547990Y-80835007D01*
X107383378Y-80212681D01*
X108218765Y-79590354D01*
X107984125Y-78922427D01*
X107817040Y-78081832D01*
X107878790Y-77153317D01*
X108028338Y-76540000D01*
X108206972Y-76077504D01*
X108378737Y-75858728D01*
X108532025Y-75873440D01*
X108655229Y-76111405D01*
X108736743Y-76562389D01*
X108765000Y-77189530D01*
X108774689Y-77710674D01*
X108816234Y-78056283D01*
X108908344Y-78304480D01*
X109069733Y-78533390D01*
X109093789Y-78562256D01*
X109462454Y-78850903D01*
X109886387Y-78961941D01*
X110286016Y-78884318D01*
X110470428Y-78753429D01*
X110622935Y-78546040D01*
X110638319Y-78325919D01*
X110500339Y-78049169D01*
X110192756Y-77671892D01*
X109988731Y-77451322D01*
X109640639Y-77067307D01*
X109350720Y-76719078D01*
X109175181Y-76474603D01*
X109163231Y-76453100D01*
X109033708Y-75976520D01*
X109058955Y-75431643D01*
X109166352Y-75085549D01*
X109239407Y-74822825D01*
X109239959Y-74466176D01*
X109167432Y-73944450D01*
X109156587Y-73882970D01*
X109077553Y-73332942D01*
X109091131Y-72927803D01*
X109225492Y-72588538D01*
X109508808Y-72236130D01*
X109869026Y-71884740D01*
X110191393Y-71560762D01*
X110354524Y-71315244D01*
X110400484Y-71071748D01*
X110393190Y-70932240D01*
X110328783Y-70630708D01*
X110169229Y-70498886D01*
X110009530Y-70467921D01*
X109541618Y-70525556D01*
X109170477Y-70801957D01*
X108911237Y-71275368D01*
X108779029Y-71924033D01*
X108765000Y-72257393D01*
X108727192Y-72730766D01*
X108626226Y-73050977D01*
X108480782Y-73185481D01*
X108309545Y-73101737D01*
X108292276Y-73080817D01*
X108043671Y-72592155D01*
X107910928Y-71965815D01*
X107899596Y-71292912D01*
X108015221Y-70664562D01*
X108128079Y-70384267D01*
X108274292Y-70081922D01*
X108348579Y-69896982D01*
X108350329Y-69872283D01*
X108239460Y-69797329D01*
X107970445Y-69613166D01*
X107594278Y-69354728D01*
X107457165Y-69260370D01*
X107048966Y-68986777D01*
X106721048Y-68780799D01*
X106528428Y-68676526D01*
X106504665Y-68670187D01*
X106396095Y-68767973D01*
X106176759Y-69027533D01*
X105883498Y-69403936D01*
X105688548Y-69665581D01*
X104768351Y-71100139D01*
X104043058Y-72614023D01*
X103807942Y-73250046D01*
X103651828Y-73673129D01*
X103508304Y-73993566D01*
X103449558Y-74081355D01*
X103449558Y-73682500D01*
X103683460Y-73024826D01*
X104298501Y-71582916D01*
X105101971Y-70213494D01*
X105540425Y-69594466D01*
X105881100Y-69138562D01*
X106163189Y-68763458D01*
X106353891Y-68512619D01*
X106419308Y-68429896D01*
X106539992Y-68466891D01*
X106787096Y-68614655D01*
X106884437Y-68681456D01*
X107304500Y-68978621D01*
X106796500Y-68381975D01*
X106499694Y-68065689D01*
X106242682Y-67847765D01*
X106104471Y-67781165D01*
X105883068Y-67879456D01*
X105573629Y-68150364D01*
X105372403Y-68373143D01*
X105372403Y-68010529D01*
X105443377Y-67979628D01*
X105579717Y-67851752D01*
X105551749Y-67778237D01*
X105533995Y-67777000D01*
X105426576Y-67867206D01*
X105387372Y-67923623D01*
X105372403Y-68010529D01*
X105372403Y-68373143D01*
X105215558Y-68546788D01*
X104848259Y-69021629D01*
X104511134Y-69527788D01*
X104356403Y-69809098D01*
X104356403Y-69280529D01*
X104427377Y-69249628D01*
X104563717Y-69121752D01*
X104535749Y-69048237D01*
X104517995Y-69047000D01*
X104410576Y-69137206D01*
X104371372Y-69193623D01*
X104356403Y-69280529D01*
X104356403Y-69809098D01*
X104257532Y-69988852D01*
X104256500Y-69991350D01*
X104256500Y-69555000D01*
X104320000Y-69491500D01*
X104256500Y-69428000D01*
X104193000Y-69491500D01*
X104256500Y-69555000D01*
X104256500Y-69991350D01*
X104129500Y-70298771D01*
X104129500Y-69809000D01*
X104193000Y-69745500D01*
X104129500Y-69682000D01*
X104066000Y-69745500D01*
X104129500Y-69809000D01*
X104129500Y-70298771D01*
X104002500Y-70606192D01*
X104002500Y-70063000D01*
X104066000Y-69999500D01*
X104002500Y-69936000D01*
X103939000Y-69999500D01*
X104002500Y-70063000D01*
X104002500Y-70606192D01*
X103884571Y-70891656D01*
X103875500Y-70922403D01*
X103875500Y-70317000D01*
X103939000Y-70253500D01*
X103875500Y-70190000D01*
X103812000Y-70253500D01*
X103875500Y-70317000D01*
X103875500Y-70922403D01*
X103727333Y-71424640D01*
X103727333Y-70655667D01*
X103802834Y-70638234D01*
X103812000Y-70571000D01*
X103765532Y-70466465D01*
X103727333Y-70486334D01*
X103712133Y-70637053D01*
X103727333Y-70655667D01*
X103727333Y-71424640D01*
X103621500Y-71783379D01*
X103621500Y-70952000D01*
X103685000Y-70888500D01*
X103621500Y-70825000D01*
X103558000Y-70888500D01*
X103621500Y-70952000D01*
X103621500Y-71783379D01*
X103612565Y-71813666D01*
X103473333Y-72614195D01*
X103473333Y-71417667D01*
X103548834Y-71400234D01*
X103558000Y-71333000D01*
X103511532Y-71228465D01*
X103473333Y-71248334D01*
X103458133Y-71399053D01*
X103473333Y-71417667D01*
X103473333Y-72614195D01*
X103463518Y-72670628D01*
X103442156Y-73111000D01*
X103449558Y-73682500D01*
X103449558Y-74081355D01*
X103410561Y-74139632D01*
X103369699Y-74305221D01*
X103415919Y-74672433D01*
X103497487Y-75027531D01*
X103862039Y-76201958D01*
X104334174Y-77277925D01*
X104952838Y-78332550D01*
X105672351Y-79334000D01*
X105977041Y-79755648D01*
X106236214Y-80161437D01*
X106379701Y-80433754D01*
X106547990Y-80835007D01*
X106547990Y-80945488D01*
X106457811Y-80957211D01*
X106338582Y-80799664D01*
X106304777Y-80687141D01*
X106200061Y-80465520D01*
X105975352Y-80099117D01*
X105666460Y-79643754D01*
X105396518Y-79271297D01*
X104470220Y-77868590D01*
X103777232Y-76464462D01*
X103346333Y-75152606D01*
X103346333Y-71925667D01*
X103421834Y-71908234D01*
X103431000Y-71841000D01*
X103384532Y-71736465D01*
X103346333Y-71756334D01*
X103331133Y-71907053D01*
X103346333Y-71925667D01*
X103346333Y-75152606D01*
X103319393Y-75070588D01*
X103098537Y-73698644D01*
X103116503Y-72360305D01*
X103375126Y-71067247D01*
X103876243Y-69831145D01*
X103903345Y-69779282D01*
X104143855Y-69357280D01*
X104356676Y-69043985D01*
X104505518Y-68890951D01*
X104533420Y-68884190D01*
X104718025Y-68817715D01*
X104847569Y-68693690D01*
X104954381Y-68546719D01*
X104886875Y-68579916D01*
X104796250Y-68649801D01*
X104617895Y-68753871D01*
X104587474Y-68689987D01*
X104699072Y-68492301D01*
X104858011Y-68293186D01*
X104927774Y-68197153D01*
X104834051Y-68262681D01*
X104608503Y-68465138D01*
X103991537Y-69193593D01*
X103463891Y-70122168D01*
X103032307Y-71210783D01*
X102703523Y-72419359D01*
X102484280Y-73707815D01*
X102381317Y-75036072D01*
X102401375Y-76364048D01*
X102551194Y-77651665D01*
X102837513Y-78858842D01*
X102852577Y-78907032D01*
X103185259Y-79796365D01*
X103578781Y-80581806D01*
X104013334Y-81247262D01*
X104469109Y-81776645D01*
X104926295Y-82153863D01*
X105365084Y-82362825D01*
X105765665Y-82387441D01*
X105765665Y-82501776D01*
X105761776Y-82502604D01*
X105604990Y-82507056D01*
X105054645Y-82386794D01*
X104501062Y-82036484D01*
X103961974Y-81479208D01*
X103455112Y-80738050D01*
X102998211Y-79836095D01*
X102609003Y-78796424D01*
X102514714Y-78484284D01*
X102404118Y-78065574D01*
X102326416Y-77668013D01*
X102276409Y-77233376D01*
X102248901Y-76703438D01*
X102238696Y-76019976D01*
X102239158Y-75397000D01*
X102239158Y-75397000D01*
G37*
X102239158Y-75397000D02*
X102247416Y-74563156D01*
X102268314Y-73918831D01*
X102308395Y-73399620D01*
X102374201Y-72941115D01*
X102472274Y-72478911D01*
X102577463Y-72066574D01*
X102950153Y-70911583D01*
X103414995Y-69867289D01*
X103948046Y-68979052D01*
X104525364Y-68292233D01*
X104612488Y-68211014D01*
X105043375Y-67861511D01*
X105351879Y-67703457D01*
X105506935Y-67698288D01*
X105828364Y-67695284D01*
X105992284Y-67638609D01*
X106117873Y-67610945D01*
X106278976Y-67672273D01*
X106509057Y-67848037D01*
X106841582Y-68163681D01*
X107295396Y-68629380D01*
X107746259Y-69096263D01*
X108060255Y-69403543D01*
X108274519Y-69576661D01*
X108426181Y-69641057D01*
X108552374Y-69622172D01*
X108659894Y-69564226D01*
X109350215Y-69206122D01*
X109956454Y-69050620D01*
X110539133Y-69091498D01*
X111133113Y-69310011D01*
X111694204Y-69717154D01*
X112092786Y-70295015D01*
X112242123Y-70723847D01*
X112265131Y-70938036D01*
X112180917Y-71104393D01*
X111942485Y-71286098D01*
X111726994Y-71416404D01*
X111131112Y-71765614D01*
X111996259Y-71925288D01*
X112626768Y-72077722D01*
X113037798Y-72274608D01*
X113263160Y-72541428D01*
X113336666Y-72903663D01*
X113337000Y-72935716D01*
X113293357Y-73238855D01*
X113138253Y-73440258D01*
X112835420Y-73555219D01*
X112428609Y-73591831D01*
X112428609Y-73471297D01*
X112763008Y-73429546D01*
X112968218Y-73330981D01*
X113005154Y-73297703D01*
X113187732Y-73016147D01*
X113145337Y-72721277D01*
X112984435Y-72479579D01*
X112764080Y-72299760D01*
X112411261Y-72178381D01*
X111936685Y-72101053D01*
X111508703Y-72056578D01*
X111192712Y-72037926D01*
X111061583Y-72048044D01*
X111060249Y-72143643D01*
X111293348Y-72227877D01*
X111770375Y-72304070D01*
X111804886Y-72308213D01*
X112348049Y-72423419D01*
X112731209Y-72609175D01*
X112920297Y-72843066D01*
X112913812Y-73037757D01*
X112833885Y-73150897D01*
X112666147Y-73211695D01*
X112354586Y-73229790D01*
X111876305Y-73216289D01*
X111362908Y-73209247D01*
X111051267Y-73239647D01*
X110965580Y-73301500D01*
X111103924Y-73369025D01*
X111428173Y-73427171D01*
X111870244Y-73464039D01*
X111904063Y-73465525D01*
X112428609Y-73471297D01*
X112428609Y-73591831D01*
X112348595Y-73599033D01*
X111780038Y-73592367D01*
X111263915Y-73568652D01*
X110951625Y-73532933D01*
X110793009Y-73471270D01*
X110737908Y-73369722D01*
X110733500Y-73301500D01*
X110755996Y-73171633D01*
X110858578Y-73095435D01*
X111093881Y-73058869D01*
X111514543Y-73047899D01*
X111686000Y-73047500D01*
X112149702Y-73031781D01*
X112503216Y-72990234D01*
X112680150Y-72931276D01*
X112687750Y-72920500D01*
X112632581Y-72761758D01*
X112378693Y-72621787D01*
X111981365Y-72520578D01*
X111495874Y-72478120D01*
X111463750Y-72477873D01*
X111010973Y-72446876D01*
X110803322Y-72357377D01*
X110788949Y-72317250D01*
X110746318Y-72286340D01*
X110678085Y-72412500D01*
X110630157Y-72652111D01*
X110587418Y-73085385D01*
X110552467Y-73652003D01*
X110527905Y-74291641D01*
X110516333Y-74943978D01*
X110520351Y-75548691D01*
X110530259Y-75841500D01*
X110553667Y-76199886D01*
X110588948Y-76335635D01*
X110651586Y-76280083D01*
X110700293Y-76185617D01*
X110887919Y-75955936D01*
X111080787Y-75955590D01*
X111230574Y-76165627D01*
X111282715Y-76414041D01*
X111429647Y-76910179D01*
X111738000Y-77262023D01*
X112163285Y-77423562D01*
X112264087Y-77429000D01*
X112673024Y-77344908D01*
X112894776Y-77108670D01*
X112907237Y-76744348D01*
X112904262Y-76732150D01*
X112757818Y-76471289D01*
X112547715Y-76437249D01*
X112337776Y-76637158D01*
X112321000Y-76667000D01*
X112141442Y-76847269D01*
X111913806Y-76917448D01*
X111733314Y-76865449D01*
X111686000Y-76747628D01*
X111769317Y-76504920D01*
X111968031Y-76222656D01*
X112205279Y-75992349D01*
X112393717Y-75905000D01*
X112556768Y-75836483D01*
X112575000Y-75783564D01*
X112458531Y-75719910D01*
X112387171Y-75706996D01*
X112387171Y-75506854D01*
X112745745Y-75501276D01*
X112981461Y-75474791D01*
X113030795Y-75429462D01*
X112860946Y-75366752D01*
X112521799Y-75304043D01*
X112215878Y-75267873D01*
X111495500Y-75200822D01*
X112194000Y-74839352D01*
X112753762Y-74533412D01*
X113075628Y-74309303D01*
X113156581Y-74155469D01*
X112993601Y-74060353D01*
X112583674Y-74012400D01*
X111974838Y-74000000D01*
X111403990Y-74012529D01*
X111080190Y-74046273D01*
X111004978Y-74095470D01*
X111179890Y-74154359D01*
X111606465Y-74217176D01*
X111908706Y-74247725D01*
X112765500Y-74325203D01*
X111813000Y-74822278D01*
X111356264Y-75063754D01*
X111098963Y-75216237D01*
X111014606Y-75306814D01*
X111076704Y-75362572D01*
X111241500Y-75406651D01*
X111568328Y-75458691D01*
X111972459Y-75492375D01*
X112387171Y-75506854D01*
X112387171Y-75706996D01*
X112151220Y-75664292D01*
X111716207Y-75627599D01*
X111654250Y-75624814D01*
X111104516Y-75577782D01*
X110802947Y-75486105D01*
X110748038Y-75341937D01*
X110938283Y-75137429D01*
X111372176Y-74864732D01*
X111495500Y-74797321D01*
X112257500Y-74388142D01*
X111527250Y-74384571D01*
X111116014Y-74375193D01*
X110897832Y-74334117D01*
X110811800Y-74234185D01*
X110797000Y-74058937D01*
X110797000Y-73736874D01*
X111971750Y-73820782D01*
X112498843Y-73868092D01*
X112929973Y-73924778D01*
X113202032Y-73981693D01*
X113258613Y-74007308D01*
X113326585Y-74207076D01*
X113166124Y-74447331D01*
X112794979Y-74706028D01*
X112625750Y-74793399D01*
X112033260Y-75079500D01*
X112652277Y-75143000D01*
X113056070Y-75210465D01*
X113261091Y-75322041D01*
X113315193Y-75437752D01*
X113252338Y-75659825D01*
X113110363Y-75734047D01*
X112955315Y-75791305D01*
X112964216Y-75885597D01*
X113146692Y-76084132D01*
X113162817Y-76100273D01*
X113409495Y-76511849D01*
X113452135Y-76996808D01*
X113288700Y-77474543D01*
X113200782Y-77602373D01*
X112844989Y-77865186D01*
X112371438Y-77961258D01*
X112167496Y-77933578D01*
X112167496Y-77787332D01*
X112637700Y-77751310D01*
X112890040Y-77632791D01*
X113104567Y-77437066D01*
X113196059Y-77162834D01*
X113210000Y-76879973D01*
X113176301Y-76506591D01*
X113092088Y-76233011D01*
X113057600Y-76184400D01*
X112771882Y-76053358D01*
X112433526Y-76093859D01*
X112132341Y-76267958D01*
X111958137Y-76537714D01*
X111943861Y-76654934D01*
X111964679Y-76781714D01*
X112046192Y-76687511D01*
X112076300Y-76636808D01*
X112294139Y-76395015D01*
X112461557Y-76278745D01*
X112740327Y-76227361D01*
X112949296Y-76361539D01*
X113072619Y-76618638D01*
X113094452Y-76936017D01*
X112998951Y-77251036D01*
X112770661Y-77500797D01*
X112351029Y-77642289D01*
X111916598Y-77569549D01*
X111518310Y-77313689D01*
X111207109Y-76905823D01*
X111046061Y-76447512D01*
X110953209Y-75968500D01*
X110938604Y-76442747D01*
X111032395Y-76931672D01*
X111307022Y-77342252D01*
X111704662Y-77639226D01*
X112167496Y-77787332D01*
X112167496Y-77933578D01*
X111853636Y-77890978D01*
X111365095Y-77654735D01*
X111282994Y-77592221D01*
X111041655Y-77400519D01*
X110976491Y-77369129D01*
X111070594Y-77493328D01*
X111114500Y-77545178D01*
X111392390Y-77782689D01*
X111778822Y-78015127D01*
X111908250Y-78075945D01*
X112229297Y-78246950D01*
X112421904Y-78412113D01*
X112446759Y-78472237D01*
X112395294Y-78670966D01*
X112263920Y-79011465D01*
X112138476Y-79294967D01*
X111779544Y-79851567D01*
X111278309Y-80243751D01*
X110590180Y-80505157D01*
X110506491Y-80526093D01*
X110138230Y-80539058D01*
X110138230Y-80348382D01*
X110770397Y-80250060D01*
X111338736Y-79986922D01*
X111782096Y-79573125D01*
X111946755Y-79294800D01*
X112125504Y-78848383D01*
X112156417Y-78553617D01*
X112022728Y-78344582D01*
X111707667Y-78155357D01*
X111649830Y-78127500D01*
X111080304Y-77728122D01*
X110860500Y-77412033D01*
X110860500Y-77175000D01*
X110924000Y-77111500D01*
X110860500Y-77048000D01*
X110797000Y-77111500D01*
X110860500Y-77175000D01*
X110860500Y-77412033D01*
X110733500Y-77229401D01*
X110733500Y-76921000D01*
X110797000Y-76857500D01*
X110733500Y-76794000D01*
X110670000Y-76857500D01*
X110733500Y-76921000D01*
X110733500Y-77229401D01*
X110673770Y-77143506D01*
X110424945Y-76373417D01*
X110364481Y-76044446D01*
X110324219Y-75728097D01*
X110302147Y-75369947D01*
X110296255Y-74915574D01*
X110304529Y-74310556D01*
X110322309Y-73596564D01*
X110366592Y-72912907D01*
X110479663Y-72412266D01*
X110697453Y-72025791D01*
X111055895Y-71684634D01*
X111470501Y-71396500D01*
X111871916Y-71087233D01*
X112044179Y-70794949D01*
X112002323Y-70466703D01*
X111825968Y-70144445D01*
X111347954Y-69627974D01*
X110756796Y-69318023D01*
X110100645Y-69229117D01*
X109427654Y-69375777D01*
X109365087Y-69402271D01*
X108780345Y-69791472D01*
X108356281Y-70345625D01*
X108112442Y-71018501D01*
X108068374Y-71763870D01*
X108155507Y-72263080D01*
X108271595Y-72604876D01*
X108387710Y-72807837D01*
X108443251Y-72834580D01*
X108512456Y-72695630D01*
X108561124Y-72381019D01*
X108575523Y-72095000D01*
X108679177Y-71360145D01*
X108965456Y-70795210D01*
X109430775Y-70406854D01*
X109505180Y-70369234D01*
X109864664Y-70241167D01*
X110149109Y-70264579D01*
X110244574Y-70302583D01*
X110571216Y-70552387D01*
X110664318Y-70893493D01*
X110525031Y-71320067D01*
X110154507Y-71826271D01*
X109889820Y-72100708D01*
X109245629Y-72724882D01*
X109332829Y-73838691D01*
X109364682Y-74577248D01*
X109330467Y-75110573D01*
X109277769Y-75323813D01*
X109190633Y-75737119D01*
X109266106Y-76154653D01*
X109520889Y-76618199D01*
X109971683Y-77169542D01*
X110049130Y-77253690D01*
X110507432Y-77798553D01*
X110753482Y-78232492D01*
X110790844Y-78578521D01*
X110623083Y-78859651D01*
X110329099Y-79060988D01*
X109901634Y-79195682D01*
X109503643Y-79109413D01*
X109085663Y-78790954D01*
X109069800Y-78775201D01*
X108845785Y-78534826D01*
X108715764Y-78318768D01*
X108653310Y-78045163D01*
X108631996Y-77632150D01*
X108629073Y-77409951D01*
X108611203Y-76913398D01*
X108572669Y-76490950D01*
X108521612Y-76230199D01*
X108518687Y-76222500D01*
X108449560Y-76118621D01*
X108373430Y-76190140D01*
X108269385Y-76466591D01*
X108210113Y-76658301D01*
X108039310Y-77531006D01*
X108051644Y-78353502D01*
X108238109Y-79083883D01*
X108589699Y-79680244D01*
X108927024Y-79993940D01*
X109503389Y-80267728D01*
X110138230Y-80348382D01*
X110138230Y-80539058D01*
X110056249Y-80541945D01*
X109512012Y-80431298D01*
X108981634Y-80221838D01*
X108727793Y-80069507D01*
X108370759Y-79815276D01*
X107538908Y-80558888D01*
X106961590Y-81133735D01*
X106614845Y-81621237D01*
X106537943Y-81797805D01*
X106356206Y-82209886D01*
X106122421Y-82425861D01*
X105765665Y-82501776D01*
X105765665Y-82387441D01*
X106108229Y-82211621D01*
X106372967Y-81819272D01*
X106389440Y-81779908D01*
X106617345Y-81368110D01*
X106925643Y-80978752D01*
X106975193Y-80929490D01*
X107258906Y-80646563D01*
X107351299Y-80520192D01*
X107252000Y-80553577D01*
X106999144Y-80722353D01*
X106662211Y-80930640D01*
X106547990Y-80945488D01*
X106547990Y-80835007D01*
X107383378Y-80212681D01*
X108218765Y-79590354D01*
X107984125Y-78922427D01*
X107817040Y-78081832D01*
X107878790Y-77153317D01*
X108028338Y-76540000D01*
X108206972Y-76077504D01*
X108378737Y-75858728D01*
X108532025Y-75873440D01*
X108655229Y-76111405D01*
X108736743Y-76562389D01*
X108765000Y-77189530D01*
X108774689Y-77710674D01*
X108816234Y-78056283D01*
X108908344Y-78304480D01*
X109069733Y-78533390D01*
X109093789Y-78562256D01*
X109462454Y-78850903D01*
X109886387Y-78961941D01*
X110286016Y-78884318D01*
X110470428Y-78753429D01*
X110622935Y-78546040D01*
X110638319Y-78325919D01*
X110500339Y-78049169D01*
X110192756Y-77671892D01*
X109988731Y-77451322D01*
X109640639Y-77067307D01*
X109350720Y-76719078D01*
X109175181Y-76474603D01*
X109163231Y-76453100D01*
X109033708Y-75976520D01*
X109058955Y-75431643D01*
X109166352Y-75085549D01*
X109239407Y-74822825D01*
X109239959Y-74466176D01*
X109167432Y-73944450D01*
X109156587Y-73882970D01*
X109077553Y-73332942D01*
X109091131Y-72927803D01*
X109225492Y-72588538D01*
X109508808Y-72236130D01*
X109869026Y-71884740D01*
X110191393Y-71560762D01*
X110354524Y-71315244D01*
X110400484Y-71071748D01*
X110393190Y-70932240D01*
X110328783Y-70630708D01*
X110169229Y-70498886D01*
X110009530Y-70467921D01*
X109541618Y-70525556D01*
X109170477Y-70801957D01*
X108911237Y-71275368D01*
X108779029Y-71924033D01*
X108765000Y-72257393D01*
X108727192Y-72730766D01*
X108626226Y-73050977D01*
X108480782Y-73185481D01*
X108309545Y-73101737D01*
X108292276Y-73080817D01*
X108043671Y-72592155D01*
X107910928Y-71965815D01*
X107899596Y-71292912D01*
X108015221Y-70664562D01*
X108128079Y-70384267D01*
X108274292Y-70081922D01*
X108348579Y-69896982D01*
X108350329Y-69872283D01*
X108239460Y-69797329D01*
X107970445Y-69613166D01*
X107594278Y-69354728D01*
X107457165Y-69260370D01*
X107048966Y-68986777D01*
X106721048Y-68780799D01*
X106528428Y-68676526D01*
X106504665Y-68670187D01*
X106396095Y-68767973D01*
X106176759Y-69027533D01*
X105883498Y-69403936D01*
X105688548Y-69665581D01*
X104768351Y-71100139D01*
X104043058Y-72614023D01*
X103807942Y-73250046D01*
X103651828Y-73673129D01*
X103508304Y-73993566D01*
X103449558Y-74081355D01*
X103449558Y-73682500D01*
X103683460Y-73024826D01*
X104298501Y-71582916D01*
X105101971Y-70213494D01*
X105540425Y-69594466D01*
X105881100Y-69138562D01*
X106163189Y-68763458D01*
X106353891Y-68512619D01*
X106419308Y-68429896D01*
X106539992Y-68466891D01*
X106787096Y-68614655D01*
X106884437Y-68681456D01*
X107304500Y-68978621D01*
X106796500Y-68381975D01*
X106499694Y-68065689D01*
X106242682Y-67847765D01*
X106104471Y-67781165D01*
X105883068Y-67879456D01*
X105573629Y-68150364D01*
X105372403Y-68373143D01*
X105372403Y-68010529D01*
X105443377Y-67979628D01*
X105579717Y-67851752D01*
X105551749Y-67778237D01*
X105533995Y-67777000D01*
X105426576Y-67867206D01*
X105387372Y-67923623D01*
X105372403Y-68010529D01*
X105372403Y-68373143D01*
X105215558Y-68546788D01*
X104848259Y-69021629D01*
X104511134Y-69527788D01*
X104356403Y-69809098D01*
X104356403Y-69280529D01*
X104427377Y-69249628D01*
X104563717Y-69121752D01*
X104535749Y-69048237D01*
X104517995Y-69047000D01*
X104410576Y-69137206D01*
X104371372Y-69193623D01*
X104356403Y-69280529D01*
X104356403Y-69809098D01*
X104257532Y-69988852D01*
X104256500Y-69991350D01*
X104256500Y-69555000D01*
X104320000Y-69491500D01*
X104256500Y-69428000D01*
X104193000Y-69491500D01*
X104256500Y-69555000D01*
X104256500Y-69991350D01*
X104129500Y-70298771D01*
X104129500Y-69809000D01*
X104193000Y-69745500D01*
X104129500Y-69682000D01*
X104066000Y-69745500D01*
X104129500Y-69809000D01*
X104129500Y-70298771D01*
X104002500Y-70606192D01*
X104002500Y-70063000D01*
X104066000Y-69999500D01*
X104002500Y-69936000D01*
X103939000Y-69999500D01*
X104002500Y-70063000D01*
X104002500Y-70606192D01*
X103884571Y-70891656D01*
X103875500Y-70922403D01*
X103875500Y-70317000D01*
X103939000Y-70253500D01*
X103875500Y-70190000D01*
X103812000Y-70253500D01*
X103875500Y-70317000D01*
X103875500Y-70922403D01*
X103727333Y-71424640D01*
X103727333Y-70655667D01*
X103802834Y-70638234D01*
X103812000Y-70571000D01*
X103765532Y-70466465D01*
X103727333Y-70486334D01*
X103712133Y-70637053D01*
X103727333Y-70655667D01*
X103727333Y-71424640D01*
X103621500Y-71783379D01*
X103621500Y-70952000D01*
X103685000Y-70888500D01*
X103621500Y-70825000D01*
X103558000Y-70888500D01*
X103621500Y-70952000D01*
X103621500Y-71783379D01*
X103612565Y-71813666D01*
X103473333Y-72614195D01*
X103473333Y-71417667D01*
X103548834Y-71400234D01*
X103558000Y-71333000D01*
X103511532Y-71228465D01*
X103473333Y-71248334D01*
X103458133Y-71399053D01*
X103473333Y-71417667D01*
X103473333Y-72614195D01*
X103463518Y-72670628D01*
X103442156Y-73111000D01*
X103449558Y-73682500D01*
X103449558Y-74081355D01*
X103410561Y-74139632D01*
X103369699Y-74305221D01*
X103415919Y-74672433D01*
X103497487Y-75027531D01*
X103862039Y-76201958D01*
X104334174Y-77277925D01*
X104952838Y-78332550D01*
X105672351Y-79334000D01*
X105977041Y-79755648D01*
X106236214Y-80161437D01*
X106379701Y-80433754D01*
X106547990Y-80835007D01*
X106547990Y-80945488D01*
X106457811Y-80957211D01*
X106338582Y-80799664D01*
X106304777Y-80687141D01*
X106200061Y-80465520D01*
X105975352Y-80099117D01*
X105666460Y-79643754D01*
X105396518Y-79271297D01*
X104470220Y-77868590D01*
X103777232Y-76464462D01*
X103346333Y-75152606D01*
X103346333Y-71925667D01*
X103421834Y-71908234D01*
X103431000Y-71841000D01*
X103384532Y-71736465D01*
X103346333Y-71756334D01*
X103331133Y-71907053D01*
X103346333Y-71925667D01*
X103346333Y-75152606D01*
X103319393Y-75070588D01*
X103098537Y-73698644D01*
X103116503Y-72360305D01*
X103375126Y-71067247D01*
X103876243Y-69831145D01*
X103903345Y-69779282D01*
X104143855Y-69357280D01*
X104356676Y-69043985D01*
X104505518Y-68890951D01*
X104533420Y-68884190D01*
X104718025Y-68817715D01*
X104847569Y-68693690D01*
X104954381Y-68546719D01*
X104886875Y-68579916D01*
X104796250Y-68649801D01*
X104617895Y-68753871D01*
X104587474Y-68689987D01*
X104699072Y-68492301D01*
X104858011Y-68293186D01*
X104927774Y-68197153D01*
X104834051Y-68262681D01*
X104608503Y-68465138D01*
X103991537Y-69193593D01*
X103463891Y-70122168D01*
X103032307Y-71210783D01*
X102703523Y-72419359D01*
X102484280Y-73707815D01*
X102381317Y-75036072D01*
X102401375Y-76364048D01*
X102551194Y-77651665D01*
X102837513Y-78858842D01*
X102852577Y-78907032D01*
X103185259Y-79796365D01*
X103578781Y-80581806D01*
X104013334Y-81247262D01*
X104469109Y-81776645D01*
X104926295Y-82153863D01*
X105365084Y-82362825D01*
X105765665Y-82387441D01*
X105765665Y-82501776D01*
X105761776Y-82502604D01*
X105604990Y-82507056D01*
X105054645Y-82386794D01*
X104501062Y-82036484D01*
X103961974Y-81479208D01*
X103455112Y-80738050D01*
X102998211Y-79836095D01*
X102609003Y-78796424D01*
X102514714Y-78484284D01*
X102404118Y-78065574D01*
X102326416Y-77668013D01*
X102276409Y-77233376D01*
X102248901Y-76703438D01*
X102238696Y-76019976D01*
X102239158Y-75397000D01*
D10*
X118347142Y-81650000D02*
X118251904Y-81602380D01*
X118109047Y-81602380D01*
X117966190Y-81650000D01*
X117870952Y-81745238D01*
X117823333Y-81840476D01*
X117775714Y-82030952D01*
X117775714Y-82173809D01*
X117823333Y-82364285D01*
X117870952Y-82459523D01*
X117966190Y-82554761D01*
X118109047Y-82602380D01*
X118204285Y-82602380D01*
X118347142Y-82554761D01*
X118394761Y-82507142D01*
X118394761Y-82173809D01*
X118204285Y-82173809D01*
X118823333Y-81935714D02*
X118823333Y-82602380D01*
X118823333Y-82030952D02*
X118870952Y-81983333D01*
X118966190Y-81935714D01*
X119109047Y-81935714D01*
X119204285Y-81983333D01*
X119251904Y-82078571D01*
X119251904Y-82602380D01*
X120156666Y-82602380D02*
X120156666Y-81602380D01*
X120156666Y-82554761D02*
X120061428Y-82602380D01*
X119870952Y-82602380D01*
X119775714Y-82554761D01*
X119728095Y-82507142D01*
X119680476Y-82411904D01*
X119680476Y-82126190D01*
X119728095Y-82030952D01*
X119775714Y-81983333D01*
X119870952Y-81935714D01*
X120061428Y-81935714D01*
X120156666Y-81983333D01*
X117775714Y-89384761D02*
X117918571Y-89432380D01*
X118156666Y-89432380D01*
X118251904Y-89384761D01*
X118299523Y-89337142D01*
X118347142Y-89241904D01*
X118347142Y-89146666D01*
X118299523Y-89051428D01*
X118251904Y-89003809D01*
X118156666Y-88956190D01*
X117966190Y-88908571D01*
X117870952Y-88860952D01*
X117823333Y-88813333D01*
X117775714Y-88718095D01*
X117775714Y-88622857D01*
X117823333Y-88527619D01*
X117870952Y-88480000D01*
X117966190Y-88432380D01*
X118204285Y-88432380D01*
X118347142Y-88480000D01*
X118775714Y-89432380D02*
X118775714Y-88432380D01*
X119013809Y-88432380D01*
X119156666Y-88480000D01*
X119251904Y-88575238D01*
X119299523Y-88670476D01*
X119347142Y-88860952D01*
X119347142Y-89003809D01*
X119299523Y-89194285D01*
X119251904Y-89289523D01*
X119156666Y-89384761D01*
X119013809Y-89432380D01*
X118775714Y-89432380D01*
X119728095Y-89146666D02*
X120204285Y-89146666D01*
X119632857Y-89432380D02*
X119966190Y-88432380D01*
X120299523Y-89432380D01*
X117819523Y-92974761D02*
X117962380Y-93022380D01*
X118200476Y-93022380D01*
X118295714Y-92974761D01*
X118343333Y-92927142D01*
X118390952Y-92831904D01*
X118390952Y-92736666D01*
X118343333Y-92641428D01*
X118295714Y-92593809D01*
X118200476Y-92546190D01*
X118010000Y-92498571D01*
X117914761Y-92450952D01*
X117867142Y-92403333D01*
X117819523Y-92308095D01*
X117819523Y-92212857D01*
X117867142Y-92117619D01*
X117914761Y-92070000D01*
X118010000Y-92022380D01*
X118248095Y-92022380D01*
X118390952Y-92070000D01*
X119390952Y-92927142D02*
X119343333Y-92974761D01*
X119200476Y-93022380D01*
X119105238Y-93022380D01*
X118962380Y-92974761D01*
X118867142Y-92879523D01*
X118819523Y-92784285D01*
X118771904Y-92593809D01*
X118771904Y-92450952D01*
X118819523Y-92260476D01*
X118867142Y-92165238D01*
X118962380Y-92070000D01*
X119105238Y-92022380D01*
X119200476Y-92022380D01*
X119343333Y-92070000D01*
X119390952Y-92117619D01*
X120295714Y-93022380D02*
X119819523Y-93022380D01*
X119819523Y-92022380D01*
X117581428Y-97122380D02*
X118200476Y-97122380D01*
X117867142Y-97503333D01*
X118010000Y-97503333D01*
X118105238Y-97550952D01*
X118152857Y-97598571D01*
X118200476Y-97693809D01*
X118200476Y-97931904D01*
X118152857Y-98027142D01*
X118105238Y-98074761D01*
X118010000Y-98122380D01*
X117724285Y-98122380D01*
X117629047Y-98074761D01*
X117581428Y-98027142D01*
X118629047Y-98027142D02*
X118676666Y-98074761D01*
X118629047Y-98122380D01*
X118581428Y-98074761D01*
X118629047Y-98027142D01*
X118629047Y-98122380D01*
X119010000Y-97122380D02*
X119629047Y-97122380D01*
X119295714Y-97503333D01*
X119438571Y-97503333D01*
X119533809Y-97550952D01*
X119581428Y-97598571D01*
X119629047Y-97693809D01*
X119629047Y-97931904D01*
X119581428Y-98027142D01*
X119533809Y-98074761D01*
X119438571Y-98122380D01*
X119152857Y-98122380D01*
X119057619Y-98074761D01*
X119010000Y-98027142D01*
X119962380Y-97455714D02*
X120200476Y-98122380D01*
X120438571Y-97455714D01*
X149502380Y-91436666D02*
X149026190Y-91770000D01*
X149502380Y-92008095D02*
X148502380Y-92008095D01*
X148502380Y-91627142D01*
X148550000Y-91531904D01*
X148597619Y-91484285D01*
X148692857Y-91436666D01*
X148835714Y-91436666D01*
X148930952Y-91484285D01*
X148978571Y-91531904D01*
X149026190Y-91627142D01*
X149026190Y-92008095D01*
X148597619Y-91055714D02*
X148550000Y-91008095D01*
X148502380Y-90912857D01*
X148502380Y-90674761D01*
X148550000Y-90579523D01*
X148597619Y-90531904D01*
X148692857Y-90484285D01*
X148788095Y-90484285D01*
X148930952Y-90531904D01*
X149502380Y-91103333D01*
X149502380Y-90484285D01*
X129513333Y-90822380D02*
X129180000Y-90346190D01*
X128941904Y-90822380D02*
X128941904Y-89822380D01*
X129322857Y-89822380D01*
X129418095Y-89870000D01*
X129465714Y-89917619D01*
X129513333Y-90012857D01*
X129513333Y-90155714D01*
X129465714Y-90250952D01*
X129418095Y-90298571D01*
X129322857Y-90346190D01*
X128941904Y-90346190D01*
X130418095Y-89822380D02*
X129941904Y-89822380D01*
X129894285Y-90298571D01*
X129941904Y-90250952D01*
X130037142Y-90203333D01*
X130275238Y-90203333D01*
X130370476Y-90250952D01*
X130418095Y-90298571D01*
X130465714Y-90393809D01*
X130465714Y-90631904D01*
X130418095Y-90727142D01*
X130370476Y-90774761D01*
X130275238Y-90822380D01*
X130037142Y-90822380D01*
X129941904Y-90774761D01*
X129894285Y-90727142D01*
X134933333Y-90652380D02*
X134600000Y-90176190D01*
X134361904Y-90652380D02*
X134361904Y-89652380D01*
X134742857Y-89652380D01*
X134838095Y-89700000D01*
X134885714Y-89747619D01*
X134933333Y-89842857D01*
X134933333Y-89985714D01*
X134885714Y-90080952D01*
X134838095Y-90128571D01*
X134742857Y-90176190D01*
X134361904Y-90176190D01*
X135790476Y-89985714D02*
X135790476Y-90652380D01*
X135552380Y-89604761D02*
X135314285Y-90319047D01*
X135933333Y-90319047D01*
X140233333Y-90652380D02*
X139900000Y-90176190D01*
X139661904Y-90652380D02*
X139661904Y-89652380D01*
X140042857Y-89652380D01*
X140138095Y-89700000D01*
X140185714Y-89747619D01*
X140233333Y-89842857D01*
X140233333Y-89985714D01*
X140185714Y-90080952D01*
X140138095Y-90128571D01*
X140042857Y-90176190D01*
X139661904Y-90176190D01*
X140566666Y-89652380D02*
X141185714Y-89652380D01*
X140852380Y-90033333D01*
X140995238Y-90033333D01*
X141090476Y-90080952D01*
X141138095Y-90128571D01*
X141185714Y-90223809D01*
X141185714Y-90461904D01*
X141138095Y-90557142D01*
X141090476Y-90604761D01*
X140995238Y-90652380D01*
X140709523Y-90652380D01*
X140614285Y-90604761D01*
X140566666Y-90557142D01*
X149352380Y-97366666D02*
X148876190Y-97700000D01*
X149352380Y-97938095D02*
X148352380Y-97938095D01*
X148352380Y-97557142D01*
X148400000Y-97461904D01*
X148447619Y-97414285D01*
X148542857Y-97366666D01*
X148685714Y-97366666D01*
X148780952Y-97414285D01*
X148828571Y-97461904D01*
X148876190Y-97557142D01*
X148876190Y-97938095D01*
X149352380Y-96414285D02*
X149352380Y-96985714D01*
X149352380Y-96700000D02*
X148352380Y-96700000D01*
X148495238Y-96795238D01*
X148590476Y-96890476D01*
X148638095Y-96985714D01*
M02*
