M48
;DRILL file {KiCad (5.0.0)} date 07/04/19 13:57:03
;FORMAT={-:-/ absolute / metric / decimal}
FMAT,2
METRIC,TZ
T1C1.000
%
G90
G05
M71
T1
X140.39Y-86.42
X140.39Y-94.04
X99.245Y-104.885
X101.785Y-102.335
X109.405Y-102.335
X119.565Y-104.875
X122.105Y-104.875
X127.185Y-102.335
X127.185Y-104.875
X88.26Y-79.04
X88.26Y-81.58
X145.33Y-91.51
X152.95Y-91.51
X160.66Y-68.6
X160.66Y-76.22
X160.66Y-78.76
X160.66Y-81.3
X160.66Y-83.84
X160.66Y-86.38
X160.66Y-88.92
X160.66Y-91.46
X177.58Y-96.74
X180.12Y-96.74
X182.66Y-96.74
X135.13Y-86.42
X135.13Y-94.04
X160.7Y-96.42
X160.7Y-98.96
X160.7Y-101.5
X129.89Y-86.45
X129.89Y-94.07
X145.33Y-97.57
X152.95Y-97.57
T0
M30
