%TF.GenerationSoftware,KiCad,Pcbnew,(5.0.0)*%
%TF.CreationDate,2019-07-04T13:56:56+02:00*%
%TF.ProjectId,Gnu vario V1.10,476E7520766172696F2056312E31302E,V 1.4*%
%TF.SameCoordinates,Original*%
%TF.FileFunction,Legend,Bot*%
%TF.FilePolarity,Positive*%
%FSLAX46Y46*%
G04 Gerber Fmt 4.6, Leading zero omitted, Abs format (unit mm)*
G04 Created by KiCad (PCBNEW (5.0.0)) date 07/04/19 13:56:56*
%MOMM*%
%LPD*%
G01*
G04 APERTURE LIST*
%ADD10C,0.150000*%
%ADD11C,0.100000*%
G04 APERTURE END LIST*
D10*
X162700000Y-95300000D02*
X173500000Y-95300000D01*
X162700000Y-108600000D02*
G75*
G02X161700000Y-109600000I-1000000J0D01*
G01*
X176200000Y-109600000D02*
G75*
G02X175300000Y-108700000I0J900000D01*
G01*
X175300000Y-97100000D02*
X175300000Y-108700000D01*
X173500000Y-95300000D02*
X175300000Y-97100000D01*
X162700000Y-95300000D02*
X162700000Y-108600000D01*
X157800000Y-109600000D02*
G75*
G02X156900000Y-108700000I0J900000D01*
G01*
X85500000Y-69900000D02*
X85500000Y-85100000D01*
X102000000Y-100100000D02*
X85500000Y-100100000D01*
X102000000Y-85100000D02*
X102000000Y-100100000D01*
X101000000Y-85100000D02*
X102000000Y-85100000D01*
X101000000Y-85100000D02*
X85500000Y-85100000D01*
X148800000Y-77900000D02*
X156400000Y-70100000D01*
X129800000Y-77900000D02*
X148800000Y-77900000D01*
X129800000Y-65900000D02*
X129800000Y-77900000D01*
X157800000Y-109600000D02*
X161700000Y-109600000D01*
X175700000Y-65900000D02*
X162400000Y-65900000D01*
X162400000Y-65900000D02*
X157400000Y-65900000D01*
X156402857Y-66600886D02*
G75*
G02X157400000Y-65900000I952331J-295115D01*
G01*
X156400000Y-66600000D02*
X156400000Y-70100000D01*
X98800000Y-109600000D02*
G75*
G02X97800000Y-108600000I0J1000000D01*
G01*
X92198215Y-108600000D02*
G75*
G02X91198215Y-109600000I-1000000J0D01*
G01*
X92198215Y-106600000D02*
G75*
G02X97800000Y-106500000I2801785J0D01*
G01*
X97800000Y-108600000D02*
X97800000Y-106500000D01*
X92200000Y-108600000D02*
X92198215Y-106600000D01*
X139800000Y-108600000D02*
G75*
G02X138800000Y-109600000I-1000000J0D01*
G01*
X101000000Y-66900000D02*
G75*
G02X102000000Y-65900000I1000000J0D01*
G01*
X91000000Y-65900000D02*
G75*
G02X92000000Y-66900000I0J-1000000D01*
G01*
X85500000Y-69900000D02*
G75*
G02X89500000Y-65900000I4000000J0D01*
G01*
X89500000Y-109600000D02*
G75*
G02X85500000Y-105600000I0J4000000D01*
G01*
X185500000Y-105600000D02*
G75*
G02X181500000Y-109600000I-4000000J0D01*
G01*
X181500000Y-65900000D02*
G75*
G02X185500000Y-69900000I0J-4000000D01*
G01*
X156900000Y-103600000D02*
X139800000Y-103600000D01*
X139800000Y-103600000D02*
X139800000Y-108600000D01*
X156900000Y-108700000D02*
X156900000Y-103600000D01*
X138800000Y-109600000D02*
X98800000Y-109600000D01*
X181500000Y-109600000D02*
X176200000Y-109600000D01*
X185500000Y-69900000D02*
X185500000Y-105600000D01*
X175700000Y-65900000D02*
X181500000Y-65900000D01*
X102000000Y-65900000D02*
X129800000Y-65900000D01*
X101000000Y-81900000D02*
X101000000Y-66900000D01*
X92000000Y-81900000D02*
X101000000Y-81900000D01*
X92000000Y-66900000D02*
X92000000Y-81900000D01*
X89500000Y-65900000D02*
X91000000Y-65900000D01*
X85500000Y-105600000D02*
X85500000Y-100100000D01*
X91200000Y-109600000D02*
X89500000Y-109600000D01*
X179000000Y-66500000D02*
X179000000Y-93500000D01*
X159000000Y-66500000D02*
X179000000Y-66500000D01*
X179000000Y-93500000D02*
X159000000Y-93500000D01*
X159000000Y-93500000D02*
X159000000Y-66500000D01*
D11*
X159000000Y-108520000D02*
X159000000Y-94620000D01*
X175600000Y-108520000D02*
X159000000Y-108520000D01*
X175600000Y-94620000D02*
X175600000Y-108520000D01*
X159000000Y-94620000D02*
X175600000Y-94620000D01*
X184100000Y-98700000D02*
X176200000Y-98700000D01*
X184100000Y-94900000D02*
X184100000Y-98700000D01*
X176200000Y-94900000D02*
X176200000Y-98700000D01*
X184100000Y-94900000D02*
X176200000Y-94900000D01*
D10*
X166097142Y-77823809D02*
X166144761Y-77776190D01*
X166192380Y-77633333D01*
X166192380Y-77538095D01*
X166144761Y-77395238D01*
X166049523Y-77300000D01*
X165954285Y-77252380D01*
X165763809Y-77204761D01*
X165620952Y-77204761D01*
X165430476Y-77252380D01*
X165335238Y-77300000D01*
X165240000Y-77395238D01*
X165192380Y-77538095D01*
X165192380Y-77633333D01*
X165240000Y-77776190D01*
X165287619Y-77823809D01*
X165192380Y-78538095D02*
X165906666Y-78538095D01*
X166049523Y-78490476D01*
X166144761Y-78395238D01*
X166192380Y-78252380D01*
X166192380Y-78157142D01*
X166192380Y-79014285D02*
X165192380Y-79014285D01*
X165906666Y-79347619D01*
X165192380Y-79680952D01*
X166192380Y-79680952D01*
X166097142Y-80728571D02*
X166144761Y-80680952D01*
X166192380Y-80538095D01*
X166192380Y-80442857D01*
X166144761Y-80300000D01*
X166049523Y-80204761D01*
X165954285Y-80157142D01*
X165763809Y-80109523D01*
X165620952Y-80109523D01*
X165430476Y-80157142D01*
X165335238Y-80204761D01*
X165240000Y-80300000D01*
X165192380Y-80442857D01*
X165192380Y-80538095D01*
X165240000Y-80680952D01*
X165287619Y-80728571D01*
X165192380Y-81157142D02*
X166001904Y-81157142D01*
X166097142Y-81204761D01*
X166144761Y-81252380D01*
X166192380Y-81347619D01*
X166192380Y-81538095D01*
X166144761Y-81633333D01*
X166097142Y-81680952D01*
X166001904Y-81728571D01*
X165192380Y-81728571D01*
X166287619Y-81966666D02*
X166287619Y-82728571D01*
X166192380Y-83490476D02*
X166192380Y-82919047D01*
X166192380Y-83204761D02*
X165192380Y-83204761D01*
X165335238Y-83109523D01*
X165430476Y-83014285D01*
X165478095Y-82919047D01*
X166192380Y-84442857D02*
X166192380Y-83871428D01*
X166192380Y-84157142D02*
X165192380Y-84157142D01*
X165335238Y-84061904D01*
X165430476Y-83966666D01*
X165478095Y-83871428D01*
X165192380Y-84776190D02*
X165192380Y-85442857D01*
X166192380Y-85014285D01*
X157442857Y-88420000D02*
X157538095Y-88372380D01*
X157680952Y-88372380D01*
X157823809Y-88420000D01*
X157919047Y-88515238D01*
X157966666Y-88610476D01*
X158014285Y-88800952D01*
X158014285Y-88943809D01*
X157966666Y-89134285D01*
X157919047Y-89229523D01*
X157823809Y-89324761D01*
X157680952Y-89372380D01*
X157585714Y-89372380D01*
X157442857Y-89324761D01*
X157395238Y-89277142D01*
X157395238Y-88943809D01*
X157585714Y-88943809D01*
X156966666Y-88705714D02*
X156966666Y-89372380D01*
X156966666Y-88800952D02*
X156919047Y-88753333D01*
X156823809Y-88705714D01*
X156680952Y-88705714D01*
X156585714Y-88753333D01*
X156538095Y-88848571D01*
X156538095Y-89372380D01*
X155633333Y-89372380D02*
X155633333Y-88372380D01*
X155633333Y-89324761D02*
X155728571Y-89372380D01*
X155919047Y-89372380D01*
X156014285Y-89324761D01*
X156061904Y-89277142D01*
X156109523Y-89181904D01*
X156109523Y-88896190D01*
X156061904Y-88800952D01*
X156014285Y-88753333D01*
X155919047Y-88705714D01*
X155728571Y-88705714D01*
X155633333Y-88753333D01*
X158028571Y-90912380D02*
X157409523Y-90912380D01*
X157742857Y-91293333D01*
X157600000Y-91293333D01*
X157504761Y-91340952D01*
X157457142Y-91388571D01*
X157409523Y-91483809D01*
X157409523Y-91721904D01*
X157457142Y-91817142D01*
X157504761Y-91864761D01*
X157600000Y-91912380D01*
X157885714Y-91912380D01*
X157980952Y-91864761D01*
X158028571Y-91817142D01*
X156980952Y-91817142D02*
X156933333Y-91864761D01*
X156980952Y-91912380D01*
X157028571Y-91864761D01*
X156980952Y-91817142D01*
X156980952Y-91912380D01*
X156600000Y-90912380D02*
X155980952Y-90912380D01*
X156314285Y-91293333D01*
X156171428Y-91293333D01*
X156076190Y-91340952D01*
X156028571Y-91388571D01*
X155980952Y-91483809D01*
X155980952Y-91721904D01*
X156028571Y-91817142D01*
X156076190Y-91864761D01*
X156171428Y-91912380D01*
X156457142Y-91912380D01*
X156552380Y-91864761D01*
X156600000Y-91817142D01*
X155647619Y-91245714D02*
X155409523Y-91912380D01*
X155171428Y-91245714D01*
X88404761Y-75985714D02*
X88452380Y-75842857D01*
X88452380Y-75604761D01*
X88404761Y-75509523D01*
X88357142Y-75461904D01*
X88261904Y-75414285D01*
X88166666Y-75414285D01*
X88071428Y-75461904D01*
X88023809Y-75509523D01*
X87976190Y-75604761D01*
X87928571Y-75795238D01*
X87880952Y-75890476D01*
X87833333Y-75938095D01*
X87738095Y-75985714D01*
X87642857Y-75985714D01*
X87547619Y-75938095D01*
X87500000Y-75890476D01*
X87452380Y-75795238D01*
X87452380Y-75557142D01*
X87500000Y-75414285D01*
X88452380Y-74985714D02*
X87452380Y-74985714D01*
X87452380Y-74604761D01*
X87500000Y-74509523D01*
X87547619Y-74461904D01*
X87642857Y-74414285D01*
X87785714Y-74414285D01*
X87880952Y-74461904D01*
X87928571Y-74509523D01*
X87976190Y-74604761D01*
X87976190Y-74985714D01*
X88452380Y-73985714D02*
X87452380Y-73985714D01*
X88452380Y-73414285D02*
X87880952Y-73842857D01*
X87452380Y-73414285D02*
X88023809Y-73985714D01*
X106452380Y-71871428D02*
X106452380Y-72442857D01*
X107452380Y-72157142D02*
X106452380Y-72157142D01*
X106452380Y-72633333D02*
X106452380Y-73204761D01*
X107452380Y-72919047D02*
X106452380Y-72919047D01*
X106500000Y-74061904D02*
X106452380Y-73966666D01*
X106452380Y-73823809D01*
X106500000Y-73680952D01*
X106595238Y-73585714D01*
X106690476Y-73538095D01*
X106880952Y-73490476D01*
X107023809Y-73490476D01*
X107214285Y-73538095D01*
X107309523Y-73585714D01*
X107404761Y-73680952D01*
X107452380Y-73823809D01*
X107452380Y-73919047D01*
X107404761Y-74061904D01*
X107357142Y-74109523D01*
X107023809Y-74109523D01*
X107023809Y-73919047D01*
X106452380Y-74728571D02*
X106452380Y-74919047D01*
X106500000Y-75014285D01*
X106595238Y-75109523D01*
X106785714Y-75157142D01*
X107119047Y-75157142D01*
X107309523Y-75109523D01*
X107404761Y-75014285D01*
X107452380Y-74919047D01*
X107452380Y-74728571D01*
X107404761Y-74633333D01*
X107309523Y-74538095D01*
X107119047Y-74490476D01*
X106785714Y-74490476D01*
X106595238Y-74538095D01*
X106500000Y-74633333D01*
X106452380Y-74728571D01*
X106452380Y-76204761D02*
X106452380Y-76776190D01*
X107452380Y-76490476D02*
X106452380Y-76490476D01*
X106452380Y-77585714D02*
X106452380Y-77109523D01*
X106928571Y-77061904D01*
X106880952Y-77109523D01*
X106833333Y-77204761D01*
X106833333Y-77442857D01*
X106880952Y-77538095D01*
X106928571Y-77585714D01*
X107023809Y-77633333D01*
X107261904Y-77633333D01*
X107357142Y-77585714D01*
X107404761Y-77538095D01*
X107452380Y-77442857D01*
X107452380Y-77204761D01*
X107404761Y-77109523D01*
X107357142Y-77061904D01*
X106452380Y-78680952D02*
X107452380Y-79014285D01*
X106452380Y-79347619D01*
X107452380Y-80204761D02*
X107452380Y-79633333D01*
X107452380Y-79919047D02*
X106452380Y-79919047D01*
X106595238Y-79823809D01*
X106690476Y-79728571D01*
X106738095Y-79633333D01*
X107357142Y-80633333D02*
X107404761Y-80680952D01*
X107452380Y-80633333D01*
X107404761Y-80585714D01*
X107357142Y-80633333D01*
X107452380Y-80633333D01*
X106452380Y-81014285D02*
X107452380Y-81680952D01*
X106452380Y-81680952D02*
X107452380Y-81014285D01*
X160300000Y-104785714D02*
X160252380Y-104690476D01*
X160252380Y-104547619D01*
X160300000Y-104404761D01*
X160395238Y-104309523D01*
X160490476Y-104261904D01*
X160680952Y-104214285D01*
X160823809Y-104214285D01*
X161014285Y-104261904D01*
X161109523Y-104309523D01*
X161204761Y-104404761D01*
X161252380Y-104547619D01*
X161252380Y-104642857D01*
X161204761Y-104785714D01*
X161157142Y-104833333D01*
X160823809Y-104833333D01*
X160823809Y-104642857D01*
X161252380Y-105261904D02*
X160252380Y-105261904D01*
X160252380Y-105642857D01*
X160300000Y-105738095D01*
X160347619Y-105785714D01*
X160442857Y-105833333D01*
X160585714Y-105833333D01*
X160680952Y-105785714D01*
X160728571Y-105738095D01*
X160776190Y-105642857D01*
X160776190Y-105261904D01*
X161204761Y-106214285D02*
X161252380Y-106357142D01*
X161252380Y-106595238D01*
X161204761Y-106690476D01*
X161157142Y-106738095D01*
X161061904Y-106785714D01*
X160966666Y-106785714D01*
X160871428Y-106738095D01*
X160823809Y-106690476D01*
X160776190Y-106595238D01*
X160728571Y-106404761D01*
X160680952Y-106309523D01*
X160633333Y-106261904D01*
X160538095Y-106214285D01*
X160442857Y-106214285D01*
X160347619Y-106261904D01*
X160300000Y-106309523D01*
X160252380Y-106404761D01*
X160252380Y-106642857D01*
X160300000Y-106785714D01*
X158042857Y-98420000D02*
X158138095Y-98372380D01*
X158280952Y-98372380D01*
X158423809Y-98420000D01*
X158519047Y-98515238D01*
X158566666Y-98610476D01*
X158614285Y-98800952D01*
X158614285Y-98943809D01*
X158566666Y-99134285D01*
X158519047Y-99229523D01*
X158423809Y-99324761D01*
X158280952Y-99372380D01*
X158185714Y-99372380D01*
X158042857Y-99324761D01*
X157995238Y-99277142D01*
X157995238Y-98943809D01*
X158185714Y-98943809D01*
X157566666Y-98705714D02*
X157566666Y-99372380D01*
X157566666Y-98800952D02*
X157519047Y-98753333D01*
X157423809Y-98705714D01*
X157280952Y-98705714D01*
X157185714Y-98753333D01*
X157138095Y-98848571D01*
X157138095Y-99372380D01*
X156233333Y-99372380D02*
X156233333Y-98372380D01*
X156233333Y-99324761D02*
X156328571Y-99372380D01*
X156519047Y-99372380D01*
X156614285Y-99324761D01*
X156661904Y-99277142D01*
X156709523Y-99181904D01*
X156709523Y-98896190D01*
X156661904Y-98800952D01*
X156614285Y-98753333D01*
X156519047Y-98705714D01*
X156328571Y-98705714D01*
X156233333Y-98753333D01*
X158628571Y-95872380D02*
X158009523Y-95872380D01*
X158342857Y-96253333D01*
X158200000Y-96253333D01*
X158104761Y-96300952D01*
X158057142Y-96348571D01*
X158009523Y-96443809D01*
X158009523Y-96681904D01*
X158057142Y-96777142D01*
X158104761Y-96824761D01*
X158200000Y-96872380D01*
X158485714Y-96872380D01*
X158580952Y-96824761D01*
X158628571Y-96777142D01*
X157580952Y-96777142D02*
X157533333Y-96824761D01*
X157580952Y-96872380D01*
X157628571Y-96824761D01*
X157580952Y-96777142D01*
X157580952Y-96872380D01*
X157200000Y-95872380D02*
X156580952Y-95872380D01*
X156914285Y-96253333D01*
X156771428Y-96253333D01*
X156676190Y-96300952D01*
X156628571Y-96348571D01*
X156580952Y-96443809D01*
X156580952Y-96681904D01*
X156628571Y-96777142D01*
X156676190Y-96824761D01*
X156771428Y-96872380D01*
X157057142Y-96872380D01*
X157152380Y-96824761D01*
X157200000Y-96777142D01*
X156247619Y-96205714D02*
X156009523Y-96872380D01*
X155771428Y-96205714D01*
X182914285Y-99628571D02*
X182580952Y-99628571D01*
X182438095Y-100152380D02*
X182914285Y-100152380D01*
X182914285Y-99152380D01*
X182438095Y-99152380D01*
X180028571Y-99628571D02*
X179885714Y-99676190D01*
X179838095Y-99723809D01*
X179790476Y-99819047D01*
X179790476Y-99961904D01*
X179838095Y-100057142D01*
X179885714Y-100104761D01*
X179980952Y-100152380D01*
X180361904Y-100152380D01*
X180361904Y-99152380D01*
X180028571Y-99152380D01*
X179933333Y-99200000D01*
X179885714Y-99247619D01*
X179838095Y-99342857D01*
X179838095Y-99438095D01*
X179885714Y-99533333D01*
X179933333Y-99580952D01*
X180028571Y-99628571D01*
X180361904Y-99628571D01*
X177290476Y-100057142D02*
X177338095Y-100104761D01*
X177480952Y-100152380D01*
X177576190Y-100152380D01*
X177719047Y-100104761D01*
X177814285Y-100009523D01*
X177861904Y-99914285D01*
X177909523Y-99723809D01*
X177909523Y-99580952D01*
X177861904Y-99390476D01*
X177814285Y-99295238D01*
X177719047Y-99200000D01*
X177576190Y-99152380D01*
X177480952Y-99152380D01*
X177338095Y-99200000D01*
X177290476Y-99247619D01*
M02*
