M48
;DRILL file {KiCad (5.0.0)} date 07/02/19 00:18:21
;FORMAT={-:-/ absolute / metric / decimal}
FMAT,2
METRIC,TZ
T1C1.000
%
G90
G05
M71
T1
X160.7Y-96.42
X160.7Y-98.96
X160.7Y-101.5
X135.13Y-86.42
X135.13Y-94.04
X160.5Y-68.64
X160.5Y-76.26
X160.5Y-78.8
X160.5Y-81.34
X160.5Y-83.88
X160.5Y-86.42
X160.5Y-88.96
X160.5Y-91.5
X177.58Y-96.74
X180.12Y-96.74
X182.66Y-96.74
X88.26Y-79.04
X88.26Y-81.58
X129.89Y-86.45
X129.89Y-94.07
X145.33Y-97.57
X152.95Y-97.57
X145.33Y-91.51
X152.95Y-91.51
X140.39Y-86.42
X140.39Y-94.04
X99.245Y-104.885
X101.785Y-102.335
X109.405Y-102.335
X119.565Y-104.875
X122.105Y-104.875
X127.185Y-102.335
X127.185Y-104.875
T0
M30
