%TF.GenerationSoftware,KiCad,Pcbnew,(5.0.0)*%
%TF.CreationDate,2019-07-02T00:18:45+02:00*%
%TF.ProjectId,Gnu vario V1.9,476E7520766172696F2056312E392E6B,V 1.4*%
%TF.SameCoordinates,Original*%
%TF.FileFunction,Legend,Top*%
%TF.FilePolarity,Positive*%
%FSLAX46Y46*%
G04 Gerber Fmt 4.6, Leading zero omitted, Abs format (unit mm)*
G04 Created by KiCad (PCBNEW (5.0.0)) date 07/02/19 00:18:45*
%MOMM*%
%LPD*%
G01*
G04 APERTURE LIST*
%ADD10C,0.150000*%
%ADD11C,0.450000*%
%ADD12C,0.100000*%
G04 APERTURE END LIST*
D10*
X162700000Y-95300000D02*
X173500000Y-95300000D01*
X162700000Y-108600000D02*
G75*
G02X161700000Y-109600000I-1000000J0D01*
G01*
X176200000Y-109600000D02*
G75*
G02X175300000Y-108700000I0J900000D01*
G01*
X175300000Y-97100000D02*
X175300000Y-108800000D01*
X173500000Y-95300000D02*
X175300000Y-97100000D01*
X162700000Y-95300000D02*
X162700000Y-108600000D01*
X157800000Y-109600000D02*
G75*
G02X156900000Y-108700000I0J900000D01*
G01*
X85500000Y-69900000D02*
X85500000Y-85100000D01*
X102000000Y-100100000D02*
X85500000Y-100100000D01*
X102000000Y-85100000D02*
X102000000Y-100100000D01*
X101000000Y-85100000D02*
X102000000Y-85100000D01*
X101000000Y-85100000D02*
X85500000Y-85100000D01*
X148800000Y-77900000D02*
X156400000Y-70100000D01*
X129800000Y-77900000D02*
X148800000Y-77900000D01*
X129800000Y-65900000D02*
X129800000Y-77900000D01*
X157800000Y-109600000D02*
X161700000Y-109600000D01*
X175700000Y-65900000D02*
X162400000Y-65900000D01*
X162400000Y-65900000D02*
X157400000Y-65900000D01*
X156402857Y-66600886D02*
G75*
G02X157400000Y-65900000I952331J-295115D01*
G01*
X156400000Y-66600000D02*
X156400000Y-70100000D01*
X98800000Y-109600000D02*
G75*
G02X97800000Y-108600000I0J1000000D01*
G01*
X92198215Y-108600000D02*
G75*
G02X91198215Y-109600000I-1000000J0D01*
G01*
X92198215Y-106600000D02*
G75*
G02X97800000Y-106500000I2801785J0D01*
G01*
X97800000Y-108600000D02*
X97800000Y-106600000D01*
X92198215Y-108600000D02*
X92198215Y-106600000D01*
X139800000Y-108600000D02*
G75*
G02X138800000Y-109600000I-1000000J0D01*
G01*
X101000000Y-66900000D02*
G75*
G02X102000000Y-65900000I1000000J0D01*
G01*
X91000000Y-65900000D02*
G75*
G02X92000000Y-66900000I0J-1000000D01*
G01*
X85500000Y-69900000D02*
G75*
G02X89500000Y-65900000I4000000J0D01*
G01*
X89500000Y-109600000D02*
G75*
G02X85500000Y-105600000I0J4000000D01*
G01*
X185500000Y-105600000D02*
G75*
G02X181500000Y-109600000I-4000000J0D01*
G01*
X181500000Y-65900000D02*
G75*
G02X185500000Y-69900000I0J-4000000D01*
G01*
X156900000Y-103600000D02*
X139800000Y-103600000D01*
X139800000Y-103600000D02*
X139800000Y-108600000D01*
X156900000Y-108700000D02*
X156900000Y-103600000D01*
X138800000Y-109600000D02*
X98800000Y-109600000D01*
X181500000Y-109600000D02*
X176300000Y-109600000D01*
X185500000Y-69900000D02*
X185500000Y-105600000D01*
X175700000Y-65900000D02*
X181500000Y-65900000D01*
X102000000Y-65900000D02*
X129800000Y-65900000D01*
X101000000Y-81900000D02*
X101000000Y-66900000D01*
X92000000Y-81900000D02*
X101000000Y-81900000D01*
X92000000Y-66900000D02*
X92000000Y-81900000D01*
X89500000Y-65900000D02*
X91000000Y-65900000D01*
X85500000Y-105600000D02*
X85500000Y-100100000D01*
X91200000Y-109600000D02*
X89500000Y-109600000D01*
D11*
X106300000Y-80904285D02*
X106214285Y-81075714D01*
X106214285Y-81332857D01*
X106300000Y-81590000D01*
X106471428Y-81761428D01*
X106642857Y-81847142D01*
X106985714Y-81932857D01*
X107242857Y-81932857D01*
X107585714Y-81847142D01*
X107757142Y-81761428D01*
X107928571Y-81590000D01*
X108014285Y-81332857D01*
X108014285Y-81161428D01*
X107928571Y-80904285D01*
X107842857Y-80818571D01*
X107242857Y-80818571D01*
X107242857Y-81161428D01*
X108014285Y-80047142D02*
X106214285Y-80047142D01*
X108014285Y-79018571D01*
X106214285Y-79018571D01*
X106214285Y-78161428D02*
X107671428Y-78161428D01*
X107842857Y-78075714D01*
X107928571Y-77990000D01*
X108014285Y-77818571D01*
X108014285Y-77475714D01*
X107928571Y-77304285D01*
X107842857Y-77218571D01*
X107671428Y-77132857D01*
X106214285Y-77132857D01*
X106214285Y-75161428D02*
X108014285Y-74561428D01*
X106214285Y-73961428D01*
X107500000Y-73447142D02*
X107500000Y-72590000D01*
X108014285Y-73618571D02*
X106214285Y-73018571D01*
X108014285Y-72418571D01*
X108014285Y-70790000D02*
X107157142Y-71390000D01*
X108014285Y-71818571D02*
X106214285Y-71818571D01*
X106214285Y-71132857D01*
X106300000Y-70961428D01*
X106385714Y-70875714D01*
X106557142Y-70790000D01*
X106814285Y-70790000D01*
X106985714Y-70875714D01*
X107071428Y-70961428D01*
X107157142Y-71132857D01*
X107157142Y-71818571D01*
X108014285Y-70018571D02*
X106214285Y-70018571D01*
X106214285Y-68818571D02*
X106214285Y-68475714D01*
X106300000Y-68304285D01*
X106471428Y-68132857D01*
X106814285Y-68047142D01*
X107414285Y-68047142D01*
X107757142Y-68132857D01*
X107928571Y-68304285D01*
X108014285Y-68475714D01*
X108014285Y-68818571D01*
X107928571Y-68990000D01*
X107757142Y-69161428D01*
X107414285Y-69247142D01*
X106814285Y-69247142D01*
X106471428Y-69161428D01*
X106300000Y-68990000D01*
X106214285Y-68818571D01*
D12*
X90800000Y-84120000D02*
X90800000Y-76500000D01*
X85720000Y-84120000D02*
X90800000Y-84120000D01*
X85720000Y-76500000D02*
X85720000Y-84120000D01*
X90800000Y-76500000D02*
X85720000Y-76500000D01*
D10*
X145330000Y-95030000D02*
X152950000Y-95030000D01*
X145330000Y-100110000D02*
X145330000Y-95030000D01*
X152950000Y-100110000D02*
X145330000Y-100110000D01*
X152950000Y-95030000D02*
X152950000Y-100110000D01*
X145330000Y-88970000D02*
X152950000Y-88970000D01*
X145330000Y-94050000D02*
X145330000Y-88970000D01*
X152950000Y-94050000D02*
X145330000Y-94050000D01*
X152950000Y-88970000D02*
X152950000Y-94050000D01*
X142930000Y-86420000D02*
X142930000Y-94040000D01*
X137850000Y-86420000D02*
X142930000Y-86420000D01*
X137850000Y-94040000D02*
X137850000Y-86420000D01*
X142930000Y-94040000D02*
X137850000Y-94040000D01*
X137670000Y-86420000D02*
X137670000Y-94040000D01*
X132590000Y-86420000D02*
X137670000Y-86420000D01*
X132590000Y-94040000D02*
X132590000Y-86420000D01*
X137670000Y-94040000D02*
X132590000Y-94040000D01*
X132430000Y-86450000D02*
X132430000Y-94070000D01*
X127350000Y-86450000D02*
X132430000Y-86450000D01*
X127350000Y-94070000D02*
X127350000Y-86450000D01*
X132430000Y-94070000D02*
X127350000Y-94070000D01*
X89981428Y-82130952D02*
X89981428Y-81369047D01*
X90081428Y-79380952D02*
X90081428Y-78619047D01*
X90462380Y-79000000D02*
X89700476Y-79000000D01*
X149352380Y-97366666D02*
X148876190Y-97700000D01*
X149352380Y-97938095D02*
X148352380Y-97938095D01*
X148352380Y-97557142D01*
X148400000Y-97461904D01*
X148447619Y-97414285D01*
X148542857Y-97366666D01*
X148685714Y-97366666D01*
X148780952Y-97414285D01*
X148828571Y-97461904D01*
X148876190Y-97557142D01*
X148876190Y-97938095D01*
X149352380Y-96414285D02*
X149352380Y-96985714D01*
X149352380Y-96700000D02*
X148352380Y-96700000D01*
X148495238Y-96795238D01*
X148590476Y-96890476D01*
X148638095Y-96985714D01*
X149452380Y-91466666D02*
X148976190Y-91800000D01*
X149452380Y-92038095D02*
X148452380Y-92038095D01*
X148452380Y-91657142D01*
X148500000Y-91561904D01*
X148547619Y-91514285D01*
X148642857Y-91466666D01*
X148785714Y-91466666D01*
X148880952Y-91514285D01*
X148928571Y-91561904D01*
X148976190Y-91657142D01*
X148976190Y-92038095D01*
X148547619Y-91085714D02*
X148500000Y-91038095D01*
X148452380Y-90942857D01*
X148452380Y-90704761D01*
X148500000Y-90609523D01*
X148547619Y-90561904D01*
X148642857Y-90514285D01*
X148738095Y-90514285D01*
X148880952Y-90561904D01*
X149452380Y-91133333D01*
X149452380Y-90514285D01*
X140233333Y-90652380D02*
X139900000Y-90176190D01*
X139661904Y-90652380D02*
X139661904Y-89652380D01*
X140042857Y-89652380D01*
X140138095Y-89700000D01*
X140185714Y-89747619D01*
X140233333Y-89842857D01*
X140233333Y-89985714D01*
X140185714Y-90080952D01*
X140138095Y-90128571D01*
X140042857Y-90176190D01*
X139661904Y-90176190D01*
X140566666Y-89652380D02*
X141185714Y-89652380D01*
X140852380Y-90033333D01*
X140995238Y-90033333D01*
X141090476Y-90080952D01*
X141138095Y-90128571D01*
X141185714Y-90223809D01*
X141185714Y-90461904D01*
X141138095Y-90557142D01*
X141090476Y-90604761D01*
X140995238Y-90652380D01*
X140709523Y-90652380D01*
X140614285Y-90604761D01*
X140566666Y-90557142D01*
X134933333Y-90652380D02*
X134600000Y-90176190D01*
X134361904Y-90652380D02*
X134361904Y-89652380D01*
X134742857Y-89652380D01*
X134838095Y-89700000D01*
X134885714Y-89747619D01*
X134933333Y-89842857D01*
X134933333Y-89985714D01*
X134885714Y-90080952D01*
X134838095Y-90128571D01*
X134742857Y-90176190D01*
X134361904Y-90176190D01*
X135790476Y-89985714D02*
X135790476Y-90652380D01*
X135552380Y-89604761D02*
X135314285Y-90319047D01*
X135933333Y-90319047D01*
X118357142Y-81700000D02*
X118261904Y-81652380D01*
X118119047Y-81652380D01*
X117976190Y-81700000D01*
X117880952Y-81795238D01*
X117833333Y-81890476D01*
X117785714Y-82080952D01*
X117785714Y-82223809D01*
X117833333Y-82414285D01*
X117880952Y-82509523D01*
X117976190Y-82604761D01*
X118119047Y-82652380D01*
X118214285Y-82652380D01*
X118357142Y-82604761D01*
X118404761Y-82557142D01*
X118404761Y-82223809D01*
X118214285Y-82223809D01*
X118833333Y-81985714D02*
X118833333Y-82652380D01*
X118833333Y-82080952D02*
X118880952Y-82033333D01*
X118976190Y-81985714D01*
X119119047Y-81985714D01*
X119214285Y-82033333D01*
X119261904Y-82128571D01*
X119261904Y-82652380D01*
X120166666Y-82652380D02*
X120166666Y-81652380D01*
X120166666Y-82604761D02*
X120071428Y-82652380D01*
X119880952Y-82652380D01*
X119785714Y-82604761D01*
X119738095Y-82557142D01*
X119690476Y-82461904D01*
X119690476Y-82176190D01*
X119738095Y-82080952D01*
X119785714Y-82033333D01*
X119880952Y-81985714D01*
X120071428Y-81985714D01*
X120166666Y-82033333D01*
X117795714Y-89774761D02*
X117938571Y-89822380D01*
X118176666Y-89822380D01*
X118271904Y-89774761D01*
X118319523Y-89727142D01*
X118367142Y-89631904D01*
X118367142Y-89536666D01*
X118319523Y-89441428D01*
X118271904Y-89393809D01*
X118176666Y-89346190D01*
X117986190Y-89298571D01*
X117890952Y-89250952D01*
X117843333Y-89203333D01*
X117795714Y-89108095D01*
X117795714Y-89012857D01*
X117843333Y-88917619D01*
X117890952Y-88870000D01*
X117986190Y-88822380D01*
X118224285Y-88822380D01*
X118367142Y-88870000D01*
X118795714Y-89822380D02*
X118795714Y-88822380D01*
X119033809Y-88822380D01*
X119176666Y-88870000D01*
X119271904Y-88965238D01*
X119319523Y-89060476D01*
X119367142Y-89250952D01*
X119367142Y-89393809D01*
X119319523Y-89584285D01*
X119271904Y-89679523D01*
X119176666Y-89774761D01*
X119033809Y-89822380D01*
X118795714Y-89822380D01*
X119748095Y-89536666D02*
X120224285Y-89536666D01*
X119652857Y-89822380D02*
X119986190Y-88822380D01*
X120319523Y-89822380D01*
X117819523Y-92974761D02*
X117962380Y-93022380D01*
X118200476Y-93022380D01*
X118295714Y-92974761D01*
X118343333Y-92927142D01*
X118390952Y-92831904D01*
X118390952Y-92736666D01*
X118343333Y-92641428D01*
X118295714Y-92593809D01*
X118200476Y-92546190D01*
X118010000Y-92498571D01*
X117914761Y-92450952D01*
X117867142Y-92403333D01*
X117819523Y-92308095D01*
X117819523Y-92212857D01*
X117867142Y-92117619D01*
X117914761Y-92070000D01*
X118010000Y-92022380D01*
X118248095Y-92022380D01*
X118390952Y-92070000D01*
X119390952Y-92927142D02*
X119343333Y-92974761D01*
X119200476Y-93022380D01*
X119105238Y-93022380D01*
X118962380Y-92974761D01*
X118867142Y-92879523D01*
X118819523Y-92784285D01*
X118771904Y-92593809D01*
X118771904Y-92450952D01*
X118819523Y-92260476D01*
X118867142Y-92165238D01*
X118962380Y-92070000D01*
X119105238Y-92022380D01*
X119200476Y-92022380D01*
X119343333Y-92070000D01*
X119390952Y-92117619D01*
X120295714Y-93022380D02*
X119819523Y-93022380D01*
X119819523Y-92022380D01*
X117581428Y-97122380D02*
X118200476Y-97122380D01*
X117867142Y-97503333D01*
X118010000Y-97503333D01*
X118105238Y-97550952D01*
X118152857Y-97598571D01*
X118200476Y-97693809D01*
X118200476Y-97931904D01*
X118152857Y-98027142D01*
X118105238Y-98074761D01*
X118010000Y-98122380D01*
X117724285Y-98122380D01*
X117629047Y-98074761D01*
X117581428Y-98027142D01*
X118629047Y-98027142D02*
X118676666Y-98074761D01*
X118629047Y-98122380D01*
X118581428Y-98074761D01*
X118629047Y-98027142D01*
X118629047Y-98122380D01*
X119010000Y-97122380D02*
X119629047Y-97122380D01*
X119295714Y-97503333D01*
X119438571Y-97503333D01*
X119533809Y-97550952D01*
X119581428Y-97598571D01*
X119629047Y-97693809D01*
X119629047Y-97931904D01*
X119581428Y-98027142D01*
X119533809Y-98074761D01*
X119438571Y-98122380D01*
X119152857Y-98122380D01*
X119057619Y-98074761D01*
X119010000Y-98027142D01*
X119962380Y-97455714D02*
X120200476Y-98122380D01*
X120438571Y-97455714D01*
X129533333Y-90852380D02*
X129200000Y-90376190D01*
X128961904Y-90852380D02*
X128961904Y-89852380D01*
X129342857Y-89852380D01*
X129438095Y-89900000D01*
X129485714Y-89947619D01*
X129533333Y-90042857D01*
X129533333Y-90185714D01*
X129485714Y-90280952D01*
X129438095Y-90328571D01*
X129342857Y-90376190D01*
X128961904Y-90376190D01*
X130438095Y-89852380D02*
X129961904Y-89852380D01*
X129914285Y-90328571D01*
X129961904Y-90280952D01*
X130057142Y-90233333D01*
X130295238Y-90233333D01*
X130390476Y-90280952D01*
X130438095Y-90328571D01*
X130485714Y-90423809D01*
X130485714Y-90661904D01*
X130438095Y-90757142D01*
X130390476Y-90804761D01*
X130295238Y-90852380D01*
X130057142Y-90852380D01*
X129961904Y-90804761D01*
X129914285Y-90757142D01*
M02*
