%TF.GenerationSoftware,KiCad,Pcbnew,(5.0.0)*%
%TF.CreationDate,2019-06-26T00:31:56+02:00*%
%TF.ProjectId,Gnu vario V1.9,476E7520766172696F2056312E392E6B,V 1.3*%
%TF.SameCoordinates,Original*%
%TF.FileFunction,Legend,Bot*%
%TF.FilePolarity,Positive*%
%FSLAX46Y46*%
G04 Gerber Fmt 4.6, Leading zero omitted, Abs format (unit mm)*
G04 Created by KiCad (PCBNEW (5.0.0)) date 06/26/19 00:31:56*
%MOMM*%
%LPD*%
G01*
G04 APERTURE LIST*
%ADD10C,0.150000*%
%ADD11C,0.100000*%
%ADD12C,0.200000*%
G04 APERTURE END LIST*
D10*
X162700000Y-95300000D02*
X173500000Y-95300000D01*
X162700000Y-108600000D02*
G75*
G02X161700000Y-109600000I-1000000J0D01*
G01*
X176200000Y-109600000D02*
G75*
G02X175300000Y-108700000I0J900000D01*
G01*
X175300000Y-97100000D02*
X175300000Y-108800000D01*
X173500000Y-95300000D02*
X175300000Y-97100000D01*
X162700000Y-95300000D02*
X162700000Y-108600000D01*
X157800000Y-109600000D02*
G75*
G02X156900000Y-108700000I0J900000D01*
G01*
X85500000Y-69900000D02*
X85500000Y-85100000D01*
X102000000Y-100100000D02*
X85500000Y-100100000D01*
X102000000Y-85100000D02*
X102000000Y-100100000D01*
X101000000Y-85100000D02*
X102000000Y-85100000D01*
X101000000Y-85100000D02*
X85500000Y-85100000D01*
X148800000Y-77900000D02*
X156400000Y-70100000D01*
X129800000Y-77900000D02*
X148800000Y-77900000D01*
X129800000Y-65900000D02*
X129800000Y-77900000D01*
X157800000Y-109600000D02*
X161700000Y-109600000D01*
X175700000Y-65900000D02*
X162400000Y-65900000D01*
X162400000Y-65900000D02*
X157400000Y-65900000D01*
X156402857Y-66600886D02*
G75*
G02X157400000Y-65900000I952331J-295115D01*
G01*
X156400000Y-66600000D02*
X156400000Y-70100000D01*
X98800000Y-109600000D02*
G75*
G02X97800000Y-108600000I0J1000000D01*
G01*
X92198215Y-108600000D02*
G75*
G02X91198215Y-109600000I-1000000J0D01*
G01*
X92198215Y-106600000D02*
G75*
G02X97800000Y-106500000I2801785J0D01*
G01*
X97800000Y-108600000D02*
X97800000Y-106600000D01*
X92198215Y-108600000D02*
X92198215Y-106600000D01*
X139800000Y-108600000D02*
G75*
G02X138800000Y-109600000I-1000000J0D01*
G01*
X101000000Y-66900000D02*
G75*
G02X102000000Y-65900000I1000000J0D01*
G01*
X91000000Y-65900000D02*
G75*
G02X92000000Y-66900000I0J-1000000D01*
G01*
X85500000Y-69900000D02*
G75*
G02X89500000Y-65900000I4000000J0D01*
G01*
X89500000Y-109600000D02*
G75*
G02X85500000Y-105600000I0J4000000D01*
G01*
X185500000Y-105600000D02*
G75*
G02X181500000Y-109600000I-4000000J0D01*
G01*
X181500000Y-65900000D02*
G75*
G02X185500000Y-69900000I0J-4000000D01*
G01*
X156900000Y-103600000D02*
X139800000Y-103600000D01*
X139800000Y-103600000D02*
X139800000Y-108600000D01*
X156900000Y-108700000D02*
X156900000Y-103600000D01*
X138800000Y-109600000D02*
X98800000Y-109600000D01*
X181500000Y-109600000D02*
X176300000Y-109600000D01*
X185500000Y-69900000D02*
X185500000Y-105600000D01*
X175700000Y-65900000D02*
X181500000Y-65900000D01*
X102000000Y-65900000D02*
X129800000Y-65900000D01*
X101000000Y-81900000D02*
X101000000Y-66900000D01*
X92000000Y-81900000D02*
X101000000Y-81900000D01*
X92000000Y-66900000D02*
X92000000Y-81900000D01*
X89500000Y-65900000D02*
X91000000Y-65900000D01*
X85500000Y-105600000D02*
X85500000Y-100100000D01*
X91200000Y-109600000D02*
X89500000Y-109600000D01*
D11*
X159000000Y-108520000D02*
X159000000Y-94620000D01*
X175600000Y-108520000D02*
X159000000Y-108520000D01*
X175600000Y-94620000D02*
X175600000Y-108520000D01*
X159000000Y-94620000D02*
X175600000Y-94620000D01*
X184100000Y-98700000D02*
X176200000Y-98700000D01*
X184100000Y-94900000D02*
X184100000Y-98700000D01*
X176200000Y-94900000D02*
X176200000Y-98700000D01*
X184100000Y-94900000D02*
X176200000Y-94900000D01*
D12*
X158840000Y-66600000D02*
X158840000Y-93600000D01*
X178840000Y-66600000D02*
X158840000Y-66600000D01*
X158840000Y-93600000D02*
X178840000Y-93600000D01*
X178840000Y-93600000D02*
X178840000Y-66600000D01*
D10*
X88404761Y-75985714D02*
X88452380Y-75842857D01*
X88452380Y-75604761D01*
X88404761Y-75509523D01*
X88357142Y-75461904D01*
X88261904Y-75414285D01*
X88166666Y-75414285D01*
X88071428Y-75461904D01*
X88023809Y-75509523D01*
X87976190Y-75604761D01*
X87928571Y-75795238D01*
X87880952Y-75890476D01*
X87833333Y-75938095D01*
X87738095Y-75985714D01*
X87642857Y-75985714D01*
X87547619Y-75938095D01*
X87500000Y-75890476D01*
X87452380Y-75795238D01*
X87452380Y-75557142D01*
X87500000Y-75414285D01*
X88452380Y-74985714D02*
X87452380Y-74985714D01*
X87452380Y-74604761D01*
X87500000Y-74509523D01*
X87547619Y-74461904D01*
X87642857Y-74414285D01*
X87785714Y-74414285D01*
X87880952Y-74461904D01*
X87928571Y-74509523D01*
X87976190Y-74604761D01*
X87976190Y-74985714D01*
X88452380Y-73985714D02*
X87452380Y-73985714D01*
X88452380Y-73414285D02*
X87880952Y-73842857D01*
X87452380Y-73414285D02*
X88023809Y-73985714D01*
X106452380Y-71871428D02*
X106452380Y-72442857D01*
X107452380Y-72157142D02*
X106452380Y-72157142D01*
X106452380Y-72633333D02*
X106452380Y-73204761D01*
X107452380Y-72919047D02*
X106452380Y-72919047D01*
X106500000Y-74061904D02*
X106452380Y-73966666D01*
X106452380Y-73823809D01*
X106500000Y-73680952D01*
X106595238Y-73585714D01*
X106690476Y-73538095D01*
X106880952Y-73490476D01*
X107023809Y-73490476D01*
X107214285Y-73538095D01*
X107309523Y-73585714D01*
X107404761Y-73680952D01*
X107452380Y-73823809D01*
X107452380Y-73919047D01*
X107404761Y-74061904D01*
X107357142Y-74109523D01*
X107023809Y-74109523D01*
X107023809Y-73919047D01*
X106452380Y-74728571D02*
X106452380Y-74919047D01*
X106500000Y-75014285D01*
X106595238Y-75109523D01*
X106785714Y-75157142D01*
X107119047Y-75157142D01*
X107309523Y-75109523D01*
X107404761Y-75014285D01*
X107452380Y-74919047D01*
X107452380Y-74728571D01*
X107404761Y-74633333D01*
X107309523Y-74538095D01*
X107119047Y-74490476D01*
X106785714Y-74490476D01*
X106595238Y-74538095D01*
X106500000Y-74633333D01*
X106452380Y-74728571D01*
X106452380Y-76204761D02*
X106452380Y-76776190D01*
X107452380Y-76490476D02*
X106452380Y-76490476D01*
X106452380Y-77585714D02*
X106452380Y-77109523D01*
X106928571Y-77061904D01*
X106880952Y-77109523D01*
X106833333Y-77204761D01*
X106833333Y-77442857D01*
X106880952Y-77538095D01*
X106928571Y-77585714D01*
X107023809Y-77633333D01*
X107261904Y-77633333D01*
X107357142Y-77585714D01*
X107404761Y-77538095D01*
X107452380Y-77442857D01*
X107452380Y-77204761D01*
X107404761Y-77109523D01*
X107357142Y-77061904D01*
X106452380Y-78680952D02*
X107452380Y-79014285D01*
X106452380Y-79347619D01*
X107452380Y-80204761D02*
X107452380Y-79633333D01*
X107452380Y-79919047D02*
X106452380Y-79919047D01*
X106595238Y-79823809D01*
X106690476Y-79728571D01*
X106738095Y-79633333D01*
X107357142Y-80633333D02*
X107404761Y-80680952D01*
X107452380Y-80633333D01*
X107404761Y-80585714D01*
X107357142Y-80633333D01*
X107452380Y-80633333D01*
X106452380Y-81014285D02*
X107452380Y-81680952D01*
X106452380Y-81680952D02*
X107452380Y-81014285D01*
X160300000Y-104785714D02*
X160252380Y-104690476D01*
X160252380Y-104547619D01*
X160300000Y-104404761D01*
X160395238Y-104309523D01*
X160490476Y-104261904D01*
X160680952Y-104214285D01*
X160823809Y-104214285D01*
X161014285Y-104261904D01*
X161109523Y-104309523D01*
X161204761Y-104404761D01*
X161252380Y-104547619D01*
X161252380Y-104642857D01*
X161204761Y-104785714D01*
X161157142Y-104833333D01*
X160823809Y-104833333D01*
X160823809Y-104642857D01*
X161252380Y-105261904D02*
X160252380Y-105261904D01*
X160252380Y-105642857D01*
X160300000Y-105738095D01*
X160347619Y-105785714D01*
X160442857Y-105833333D01*
X160585714Y-105833333D01*
X160680952Y-105785714D01*
X160728571Y-105738095D01*
X160776190Y-105642857D01*
X160776190Y-105261904D01*
X161204761Y-106214285D02*
X161252380Y-106357142D01*
X161252380Y-106595238D01*
X161204761Y-106690476D01*
X161157142Y-106738095D01*
X161061904Y-106785714D01*
X160966666Y-106785714D01*
X160871428Y-106738095D01*
X160823809Y-106690476D01*
X160776190Y-106595238D01*
X160728571Y-106404761D01*
X160680952Y-106309523D01*
X160633333Y-106261904D01*
X160538095Y-106214285D01*
X160442857Y-106214285D01*
X160347619Y-106261904D01*
X160300000Y-106309523D01*
X160252380Y-106404761D01*
X160252380Y-106642857D01*
X160300000Y-106785714D01*
X158042857Y-98420000D02*
X158138095Y-98372380D01*
X158280952Y-98372380D01*
X158423809Y-98420000D01*
X158519047Y-98515238D01*
X158566666Y-98610476D01*
X158614285Y-98800952D01*
X158614285Y-98943809D01*
X158566666Y-99134285D01*
X158519047Y-99229523D01*
X158423809Y-99324761D01*
X158280952Y-99372380D01*
X158185714Y-99372380D01*
X158042857Y-99324761D01*
X157995238Y-99277142D01*
X157995238Y-98943809D01*
X158185714Y-98943809D01*
X157566666Y-98705714D02*
X157566666Y-99372380D01*
X157566666Y-98800952D02*
X157519047Y-98753333D01*
X157423809Y-98705714D01*
X157280952Y-98705714D01*
X157185714Y-98753333D01*
X157138095Y-98848571D01*
X157138095Y-99372380D01*
X156233333Y-99372380D02*
X156233333Y-98372380D01*
X156233333Y-99324761D02*
X156328571Y-99372380D01*
X156519047Y-99372380D01*
X156614285Y-99324761D01*
X156661904Y-99277142D01*
X156709523Y-99181904D01*
X156709523Y-98896190D01*
X156661904Y-98800952D01*
X156614285Y-98753333D01*
X156519047Y-98705714D01*
X156328571Y-98705714D01*
X156233333Y-98753333D01*
X158628571Y-95872380D02*
X158009523Y-95872380D01*
X158342857Y-96253333D01*
X158200000Y-96253333D01*
X158104761Y-96300952D01*
X158057142Y-96348571D01*
X158009523Y-96443809D01*
X158009523Y-96681904D01*
X158057142Y-96777142D01*
X158104761Y-96824761D01*
X158200000Y-96872380D01*
X158485714Y-96872380D01*
X158580952Y-96824761D01*
X158628571Y-96777142D01*
X157580952Y-96777142D02*
X157533333Y-96824761D01*
X157580952Y-96872380D01*
X157628571Y-96824761D01*
X157580952Y-96777142D01*
X157580952Y-96872380D01*
X157200000Y-95872380D02*
X156580952Y-95872380D01*
X156914285Y-96253333D01*
X156771428Y-96253333D01*
X156676190Y-96300952D01*
X156628571Y-96348571D01*
X156580952Y-96443809D01*
X156580952Y-96681904D01*
X156628571Y-96777142D01*
X156676190Y-96824761D01*
X156771428Y-96872380D01*
X157057142Y-96872380D01*
X157152380Y-96824761D01*
X157200000Y-96777142D01*
X156247619Y-96205714D02*
X156009523Y-96872380D01*
X155771428Y-96205714D01*
X182914285Y-99628571D02*
X182580952Y-99628571D01*
X182438095Y-100152380D02*
X182914285Y-100152380D01*
X182914285Y-99152380D01*
X182438095Y-99152380D01*
X180028571Y-99628571D02*
X179885714Y-99676190D01*
X179838095Y-99723809D01*
X179790476Y-99819047D01*
X179790476Y-99961904D01*
X179838095Y-100057142D01*
X179885714Y-100104761D01*
X179980952Y-100152380D01*
X180361904Y-100152380D01*
X180361904Y-99152380D01*
X180028571Y-99152380D01*
X179933333Y-99200000D01*
X179885714Y-99247619D01*
X179838095Y-99342857D01*
X179838095Y-99438095D01*
X179885714Y-99533333D01*
X179933333Y-99580952D01*
X180028571Y-99628571D01*
X180361904Y-99628571D01*
X177290476Y-100057142D02*
X177338095Y-100104761D01*
X177480952Y-100152380D01*
X177576190Y-100152380D01*
X177719047Y-100104761D01*
X177814285Y-100009523D01*
X177861904Y-99914285D01*
X177909523Y-99723809D01*
X177909523Y-99580952D01*
X177861904Y-99390476D01*
X177814285Y-99295238D01*
X177719047Y-99200000D01*
X177576190Y-99152380D01*
X177480952Y-99152380D01*
X177338095Y-99200000D01*
X177290476Y-99247619D01*
X169057142Y-75423809D02*
X169104761Y-75376190D01*
X169152380Y-75233333D01*
X169152380Y-75138095D01*
X169104761Y-74995238D01*
X169009523Y-74900000D01*
X168914285Y-74852380D01*
X168723809Y-74804761D01*
X168580952Y-74804761D01*
X168390476Y-74852380D01*
X168295238Y-74900000D01*
X168200000Y-74995238D01*
X168152380Y-75138095D01*
X168152380Y-75233333D01*
X168200000Y-75376190D01*
X168247619Y-75423809D01*
X168152380Y-76138095D02*
X168866666Y-76138095D01*
X169009523Y-76090476D01*
X169104761Y-75995238D01*
X169152380Y-75852380D01*
X169152380Y-75757142D01*
X169152380Y-76614285D02*
X168152380Y-76614285D01*
X168866666Y-76947619D01*
X168152380Y-77280952D01*
X169152380Y-77280952D01*
X169057142Y-78328571D02*
X169104761Y-78280952D01*
X169152380Y-78138095D01*
X169152380Y-78042857D01*
X169104761Y-77900000D01*
X169009523Y-77804761D01*
X168914285Y-77757142D01*
X168723809Y-77709523D01*
X168580952Y-77709523D01*
X168390476Y-77757142D01*
X168295238Y-77804761D01*
X168200000Y-77900000D01*
X168152380Y-78042857D01*
X168152380Y-78138095D01*
X168200000Y-78280952D01*
X168247619Y-78328571D01*
X168152380Y-78757142D02*
X168961904Y-78757142D01*
X169057142Y-78804761D01*
X169104761Y-78852380D01*
X169152380Y-78947619D01*
X169152380Y-79138095D01*
X169104761Y-79233333D01*
X169057142Y-79280952D01*
X168961904Y-79328571D01*
X168152380Y-79328571D01*
X169247619Y-79566666D02*
X169247619Y-80328571D01*
X169152380Y-81090476D02*
X169152380Y-80519047D01*
X169152380Y-80804761D02*
X168152380Y-80804761D01*
X168295238Y-80709523D01*
X168390476Y-80614285D01*
X168438095Y-80519047D01*
X169152380Y-82042857D02*
X169152380Y-81471428D01*
X169152380Y-81757142D02*
X168152380Y-81757142D01*
X168295238Y-81661904D01*
X168390476Y-81566666D01*
X168438095Y-81471428D01*
X168152380Y-82376190D02*
X168152380Y-83042857D01*
X169152380Y-82614285D01*
X157868571Y-90852380D02*
X157249523Y-90852380D01*
X157582857Y-91233333D01*
X157440000Y-91233333D01*
X157344761Y-91280952D01*
X157297142Y-91328571D01*
X157249523Y-91423809D01*
X157249523Y-91661904D01*
X157297142Y-91757142D01*
X157344761Y-91804761D01*
X157440000Y-91852380D01*
X157725714Y-91852380D01*
X157820952Y-91804761D01*
X157868571Y-91757142D01*
X156820952Y-91757142D02*
X156773333Y-91804761D01*
X156820952Y-91852380D01*
X156868571Y-91804761D01*
X156820952Y-91757142D01*
X156820952Y-91852380D01*
X156440000Y-90852380D02*
X155820952Y-90852380D01*
X156154285Y-91233333D01*
X156011428Y-91233333D01*
X155916190Y-91280952D01*
X155868571Y-91328571D01*
X155820952Y-91423809D01*
X155820952Y-91661904D01*
X155868571Y-91757142D01*
X155916190Y-91804761D01*
X156011428Y-91852380D01*
X156297142Y-91852380D01*
X156392380Y-91804761D01*
X156440000Y-91757142D01*
X155487619Y-91185714D02*
X155249523Y-91852380D01*
X155011428Y-91185714D01*
X157282857Y-88400000D02*
X157378095Y-88352380D01*
X157520952Y-88352380D01*
X157663809Y-88400000D01*
X157759047Y-88495238D01*
X157806666Y-88590476D01*
X157854285Y-88780952D01*
X157854285Y-88923809D01*
X157806666Y-89114285D01*
X157759047Y-89209523D01*
X157663809Y-89304761D01*
X157520952Y-89352380D01*
X157425714Y-89352380D01*
X157282857Y-89304761D01*
X157235238Y-89257142D01*
X157235238Y-88923809D01*
X157425714Y-88923809D01*
X156806666Y-88685714D02*
X156806666Y-89352380D01*
X156806666Y-88780952D02*
X156759047Y-88733333D01*
X156663809Y-88685714D01*
X156520952Y-88685714D01*
X156425714Y-88733333D01*
X156378095Y-88828571D01*
X156378095Y-89352380D01*
X155473333Y-89352380D02*
X155473333Y-88352380D01*
X155473333Y-89304761D02*
X155568571Y-89352380D01*
X155759047Y-89352380D01*
X155854285Y-89304761D01*
X155901904Y-89257142D01*
X155949523Y-89161904D01*
X155949523Y-88876190D01*
X155901904Y-88780952D01*
X155854285Y-88733333D01*
X155759047Y-88685714D01*
X155568571Y-88685714D01*
X155473333Y-88733333D01*
M02*
