%TF.GenerationSoftware,KiCad,Pcbnew,(5.0.0)*%
%TF.CreationDate,2019-06-26T00:31:56+02:00*%
%TF.ProjectId,Gnu vario V1.9,476E7520766172696F2056312E392E6B,V 1.3*%
%TF.SameCoordinates,Original*%
%TF.FileFunction,Soldermask,Top*%
%TF.FilePolarity,Negative*%
%FSLAX46Y46*%
G04 Gerber Fmt 4.6, Leading zero omitted, Abs format (unit mm)*
G04 Created by KiCad (PCBNEW (5.0.0)) date 06/26/19 00:31:56*
%MOMM*%
%LPD*%
G01*
G04 APERTURE LIST*
%ADD10C,0.150000*%
%ADD11O,2.600000X2.400000*%
%ADD12C,4.600000*%
%ADD13O,2.700000X2.400000*%
%ADD14O,3.400000X2.400000*%
%ADD15O,2.400000X3.400000*%
%ADD16O,3.900000X2.700000*%
G04 APERTURE END LIST*
D10*
X162700000Y-95300000D02*
X173500000Y-95300000D01*
X162700000Y-108600000D02*
G75*
G02X161700000Y-109600000I-1000000J0D01*
G01*
X176200000Y-109600000D02*
G75*
G02X175300000Y-108700000I0J900000D01*
G01*
X175300000Y-97100000D02*
X175300000Y-108800000D01*
X173500000Y-95300000D02*
X175300000Y-97100000D01*
X162700000Y-95300000D02*
X162700000Y-108600000D01*
X157800000Y-109600000D02*
G75*
G02X156900000Y-108700000I0J900000D01*
G01*
X85500000Y-69900000D02*
X85500000Y-85100000D01*
X102000000Y-100100000D02*
X85500000Y-100100000D01*
X102000000Y-85100000D02*
X102000000Y-100100000D01*
X101000000Y-85100000D02*
X102000000Y-85100000D01*
X101000000Y-85100000D02*
X85500000Y-85100000D01*
X148800000Y-77900000D02*
X156400000Y-70100000D01*
X129800000Y-77900000D02*
X148800000Y-77900000D01*
X129800000Y-65900000D02*
X129800000Y-77900000D01*
X157800000Y-109600000D02*
X161700000Y-109600000D01*
X175700000Y-65900000D02*
X162400000Y-65900000D01*
X162400000Y-65900000D02*
X157400000Y-65900000D01*
X156402857Y-66600886D02*
G75*
G02X157400000Y-65900000I952331J-295115D01*
G01*
X156400000Y-66600000D02*
X156400000Y-70100000D01*
X98800000Y-109600000D02*
G75*
G02X97800000Y-108600000I0J1000000D01*
G01*
X92198215Y-108600000D02*
G75*
G02X91198215Y-109600000I-1000000J0D01*
G01*
X92198215Y-106600000D02*
G75*
G02X97800000Y-106500000I2801785J0D01*
G01*
X97800000Y-108600000D02*
X97800000Y-106600000D01*
X92198215Y-108600000D02*
X92198215Y-106600000D01*
X139800000Y-108600000D02*
G75*
G02X138800000Y-109600000I-1000000J0D01*
G01*
X101000000Y-66900000D02*
G75*
G02X102000000Y-65900000I1000000J0D01*
G01*
X91000000Y-65900000D02*
G75*
G02X92000000Y-66900000I0J-1000000D01*
G01*
X85500000Y-69900000D02*
G75*
G02X89500000Y-65900000I4000000J0D01*
G01*
X89500000Y-109600000D02*
G75*
G02X85500000Y-105600000I0J4000000D01*
G01*
X185500000Y-105600000D02*
G75*
G02X181500000Y-109600000I-4000000J0D01*
G01*
X181500000Y-65900000D02*
G75*
G02X185500000Y-69900000I0J-4000000D01*
G01*
X156900000Y-103600000D02*
X139800000Y-103600000D01*
X139800000Y-103600000D02*
X139800000Y-108600000D01*
X156900000Y-108700000D02*
X156900000Y-103600000D01*
X138800000Y-109600000D02*
X98800000Y-109600000D01*
X181500000Y-109600000D02*
X176300000Y-109600000D01*
X185500000Y-69900000D02*
X185500000Y-105600000D01*
X175700000Y-65900000D02*
X181500000Y-65900000D01*
X102000000Y-65900000D02*
X129800000Y-65900000D01*
X101000000Y-81900000D02*
X101000000Y-66900000D01*
X92000000Y-81900000D02*
X101000000Y-81900000D01*
X92000000Y-66900000D02*
X92000000Y-81900000D01*
X89500000Y-65900000D02*
X91000000Y-65900000D01*
X85500000Y-105600000D02*
X85500000Y-100100000D01*
X91200000Y-109600000D02*
X89500000Y-109600000D01*
D11*
X88260000Y-81580000D03*
X88260000Y-79040000D03*
D12*
X88800000Y-105600000D03*
X88800000Y-69900000D03*
X182800000Y-69900000D03*
X182800000Y-105600000D03*
D11*
X127184546Y-102334532D03*
X127184546Y-104874532D03*
D13*
X99244546Y-104884532D03*
D11*
X122104546Y-104874532D03*
X119564546Y-104874532D03*
D13*
X109404546Y-102334532D03*
X101784546Y-102334532D03*
D14*
X160700000Y-96420000D03*
X160700000Y-101500000D03*
X160700000Y-98960000D03*
X152950000Y-97570000D03*
X145330000Y-97570000D03*
X152950000Y-91510000D03*
X145330000Y-91510000D03*
D15*
X140390000Y-94040000D03*
X140390000Y-86420000D03*
X135130000Y-94040000D03*
X135130000Y-86420000D03*
D16*
X124210000Y-97470000D03*
X124210000Y-92390000D03*
X124210000Y-89850000D03*
X124210000Y-82230000D03*
D15*
X129890000Y-94070000D03*
X129890000Y-86450000D03*
X177580000Y-96740000D03*
X180120000Y-96740000D03*
X182660000Y-96740000D03*
D14*
X160500000Y-91500000D03*
X160500000Y-88960000D03*
X160500000Y-86420000D03*
X160500000Y-83880000D03*
X160500000Y-76260000D03*
X160500000Y-81340000D03*
X160500000Y-78800000D03*
X160500000Y-68640000D03*
M02*
